{
    "asset" : {
        "generator" : "Khronos glTF Blender I/O v1.3.48",
        "version" : "2.0"
    },
    "scene" : 0,
    "scenes" : [
        {
            "name" : "Scene",
            "nodes" : [
                0,
                1,
                2,
                3,
                4
            ]
        }
    ],
    "nodes" : [
        {
            "mesh" : 0,
            "name" : "Buffet_doorL",
            "translation" : [
                -6.958173751831055,
                0.15819886326789856,
                11.164889335632324
            ]
        },
        {
            "mesh" : 1,
            "name" : "Buffet_doorR",
            "translation" : [
                -5.675769329071045,
                0.15532079339027405,
                11.167177200317383
            ]
        },
        {
            "mesh" : 2,
            "name" : "Buffet_base",
            "translation" : [
                -6.31470251083374,
                0.006424255669116974,
                10.608566284179688
            ]
        },
        {
            "mesh" : 3,
            "name" : "Buffet_Container",
            "rotation" : [
                0,
                0.7071068286895752,
                0,
                0.7071068286895752
            ],
            "translation" : [
                -5.095470905303955,
                1.0453981161117554,
                10.598454475402832
            ]
        },
        {
            "mesh" : 4,
            "name" : "Buffet_Container_lid",
            "rotation" : [
                0,
                0.7071068286895752,
                0,
                0.7071068286895752
            ],
            "translation" : [
                -5.09573221206665,
                1.0457743406295776,
                10.598454475402832
            ]
        }
    ],
    "materials" : [
        {
            "doubleSided" : true,
            "emissiveFactor" : [
                0,
                0,
                0
            ],
            "name" : "metal",
            "pbrMetallicRoughness" : {
                "baseColorTexture" : {
                    "index" : 0,
                    "texCoord" : 0
                },
                "metallicFactor" : 1,
                "roughnessFactor" : 0.19999998807907104
            }
        },
        {
            "doubleSided" : true,
            "emissiveFactor" : [
                0,
                0,
                0
            ],
            "name" : "door-small",
            "pbrMetallicRoughness" : {
                "baseColorTexture" : {
                    "index" : 1,
                    "texCoord" : 0
                },
                "metallicFactor" : 0,
                "roughnessFactor" : 0.5
            }
        },
        {
            "alphaMode" : "BLEND",
            "doubleSided" : true,
            "emissiveFactor" : [
                0,
                0,
                0
            ],
            "name" : "clear-glass",
            "pbrMetallicRoughness" : {
                "baseColorFactor" : [
                    0.800000011920929,
                    0.800000011920929,
                    0.800000011920929,
                    0.6000000238418579
                ],
                "metallicFactor" : 0,
                "roughnessFactor" : 0
            }
        }
    ],
    "meshes" : [
        {
            "name" : "Cube.036",
            "primitives" : [
                {
                    "attributes" : {
                        "POSITION" : 0,
                        "NORMAL" : 1,
                        "TEXCOORD_0" : 2
                    },
                    "indices" : 3,
                    "material" : 0
                }
            ]
        },
        {
            "name" : "Cube.033",
            "primitives" : [
                {
                    "attributes" : {
                        "POSITION" : 4,
                        "NORMAL" : 5,
                        "TEXCOORD_0" : 6
                    },
                    "indices" : 3,
                    "material" : 0
                }
            ]
        },
        {
            "name" : "Cube.028",
            "primitives" : [
                {
                    "attributes" : {
                        "POSITION" : 7,
                        "NORMAL" : 8,
                        "TEXCOORD_0" : 9
                    },
                    "indices" : 10,
                    "material" : 0
                },
                {
                    "attributes" : {
                        "POSITION" : 11,
                        "NORMAL" : 12,
                        "TEXCOORD_0" : 13
                    },
                    "indices" : 14,
                    "material" : 1
                },
                {
                    "attributes" : {
                        "POSITION" : 15,
                        "NORMAL" : 16,
                        "TEXCOORD_0" : 17
                    },
                    "indices" : 18,
                    "material" : 2
                }
            ]
        },
        {
            "name" : "Cube.089",
            "primitives" : [
                {
                    "attributes" : {
                        "POSITION" : 19,
                        "NORMAL" : 20,
                        "TEXCOORD_0" : 21
                    },
                    "indices" : 22,
                    "material" : 0
                }
            ]
        },
        {
            "name" : "Cube.090",
            "primitives" : [
                {
                    "attributes" : {
                        "POSITION" : 23,
                        "NORMAL" : 24,
                        "TEXCOORD_0" : 25
                    },
                    "indices" : 26,
                    "material" : 0
                }
            ]
        }
    ],
    "textures" : [
        {
            "source" : 0
        },
        {
            "source" : 1
        }
    ],
    "images" : [
        {
            "bufferView" : 4,
            "mimeType" : "image/jpeg",
            "name" : "aluminum"
        },
        {
            "bufferView" : 16,
            "mimeType" : "image/jpeg",
            "name" : "wood-door-512"
        }
    ],
    "accessors" : [
        {
            "bufferView" : 0,
            "componentType" : 5126,
            "count" : 96,
            "max" : [
                0.6398569941520691,
                0.8484010696411133,
                0.02558891475200653
            ],
            "min" : [
                0.002347396919503808,
                0.001118377665989101,
                -0.02572576329112053
            ],
            "type" : "VEC3"
        },
        {
            "bufferView" : 1,
            "componentType" : 5126,
            "count" : 96,
            "type" : "VEC3"
        },
        {
            "bufferView" : 2,
            "componentType" : 5126,
            "count" : 96,
            "type" : "VEC2"
        },
        {
            "bufferView" : 3,
            "componentType" : 5123,
            "count" : 132,
            "type" : "SCALAR"
        },
        {
            "bufferView" : 5,
            "componentType" : 5126,
            "count" : 96,
            "max" : [
                -0.0023018368519842625,
                0.849465012550354,
                0.024965299293398857
            ],
            "min" : [
                -0.6387344002723694,
                0.0041228532791137695,
                -0.026349375024437904
            ],
            "type" : "VEC3"
        },
        {
            "bufferView" : 6,
            "componentType" : 5126,
            "count" : 96,
            "type" : "VEC3"
        },
        {
            "bufferView" : 7,
            "componentType" : 5126,
            "count" : 96,
            "type" : "VEC2"
        },
        {
            "bufferView" : 8,
            "componentType" : 5126,
            "count" : 1158,
            "max" : [
                1.829498291015625,
                2.008657932281494,
                0.6333810687065125
            ],
            "min" : [
                -1.829498291015625,
                -0.0001261330471606925,
                -0.6532160043716431
            ],
            "type" : "VEC3"
        },
        {
            "bufferView" : 9,
            "componentType" : 5126,
            "count" : 1158,
            "type" : "VEC3"
        },
        {
            "bufferView" : 10,
            "componentType" : 5126,
            "count" : 1158,
            "type" : "VEC2"
        },
        {
            "bufferView" : 11,
            "componentType" : 5123,
            "count" : 1854,
            "type" : "SCALAR"
        },
        {
            "bufferView" : 12,
            "componentType" : 5126,
            "count" : 88,
            "max" : [
                1.7508723735809326,
                1.9543414115905762,
                0.5561249256134033
            ],
            "min" : [
                -1.744293451309204,
                0.24248649179935455,
                -0.5734899640083313
            ],
            "type" : "VEC3"
        },
        {
            "bufferView" : 13,
            "componentType" : 5126,
            "count" : 88,
            "type" : "VEC3"
        },
        {
            "bufferView" : 14,
            "componentType" : 5126,
            "count" : 88,
            "type" : "VEC2"
        },
        {
            "bufferView" : 15,
            "componentType" : 5123,
            "count" : 138,
            "type" : "SCALAR"
        },
        {
            "bufferView" : 17,
            "componentType" : 5126,
            "count" : 48,
            "max" : [
                1.739634394645691,
                1.9719783067703247,
                0.542752742767334
            ],
            "min" : [
                -1.7343274354934692,
                1.5984781980514526,
                -0.5439561009407043
            ],
            "type" : "VEC3"
        },
        {
            "bufferView" : 18,
            "componentType" : 5126,
            "count" : 48,
            "type" : "VEC3"
        },
        {
            "bufferView" : 19,
            "componentType" : 5126,
            "count" : 48,
            "type" : "VEC2"
        },
        {
            "bufferView" : 20,
            "componentType" : 5123,
            "count" : 72,
            "type" : "SCALAR"
        },
        {
            "bufferView" : 21,
            "componentType" : 5126,
            "count" : 352,
            "max" : [
                0.4756835103034973,
                0.07703732699155807,
                0.2846146821975708
            ],
            "min" : [
                -0.4756835103034973,
                -0.07768280804157257,
                -0.2846146821975708
            ],
            "type" : "VEC3"
        },
        {
            "bufferView" : 22,
            "componentType" : 5126,
            "count" : 352,
            "type" : "VEC3"
        },
        {
            "bufferView" : 23,
            "componentType" : 5126,
            "count" : 352,
            "type" : "VEC2"
        },
        {
            "bufferView" : 24,
            "componentType" : 5123,
            "count" : 516,
            "type" : "SCALAR"
        },
        {
            "bufferView" : 25,
            "componentType" : 5126,
            "count" : 477,
            "max" : [
                0.47620582580566406,
                0.08244641125202179,
                0.2857615649700165
            ],
            "min" : [
                -0.47620582580566406,
                0.04613548517227173,
                -0.2857615649700165
            ],
            "type" : "VEC3"
        },
        {
            "bufferView" : 26,
            "componentType" : 5126,
            "count" : 477,
            "type" : "VEC3"
        },
        {
            "bufferView" : 27,
            "componentType" : 5126,
            "count" : 477,
            "type" : "VEC2"
        },
        {
            "bufferView" : 28,
            "componentType" : 5123,
            "count" : 738,
            "type" : "SCALAR"
        }
    ],
    "bufferViews" : [
        {
            "buffer" : 0,
            "byteLength" : 1152,
            "byteOffset" : 0
        },
        {
            "buffer" : 0,
            "byteLength" : 1152,
            "byteOffset" : 1152
        },
        {
            "buffer" : 0,
            "byteLength" : 768,
            "byteOffset" : 2304
        },
        {
            "buffer" : 0,
            "byteLength" : 264,
            "byteOffset" : 3072
        },
        {
            "buffer" : 0,
            "byteLength" : 33650,
            "byteOffset" : 3336
        },
        {
            "buffer" : 0,
            "byteLength" : 1152,
            "byteOffset" : 36988
        },
        {
            "buffer" : 0,
            "byteLength" : 1152,
            "byteOffset" : 38140
        },
        {
            "buffer" : 0,
            "byteLength" : 768,
            "byteOffset" : 39292
        },
        {
            "buffer" : 0,
            "byteLength" : 13896,
            "byteOffset" : 40060
        },
        {
            "buffer" : 0,
            "byteLength" : 13896,
            "byteOffset" : 53956
        },
        {
            "buffer" : 0,
            "byteLength" : 9264,
            "byteOffset" : 67852
        },
        {
            "buffer" : 0,
            "byteLength" : 3708,
            "byteOffset" : 77116
        },
        {
            "buffer" : 0,
            "byteLength" : 1056,
            "byteOffset" : 80824
        },
        {
            "buffer" : 0,
            "byteLength" : 1056,
            "byteOffset" : 81880
        },
        {
            "buffer" : 0,
            "byteLength" : 704,
            "byteOffset" : 82936
        },
        {
            "buffer" : 0,
            "byteLength" : 276,
            "byteOffset" : 83640
        },
        {
            "buffer" : 0,
            "byteLength" : 45166,
            "byteOffset" : 83916
        },
        {
            "buffer" : 0,
            "byteLength" : 576,
            "byteOffset" : 129084
        },
        {
            "buffer" : 0,
            "byteLength" : 576,
            "byteOffset" : 129660
        },
        {
            "buffer" : 0,
            "byteLength" : 384,
            "byteOffset" : 130236
        },
        {
            "buffer" : 0,
            "byteLength" : 144,
            "byteOffset" : 130620
        },
        {
            "buffer" : 0,
            "byteLength" : 4224,
            "byteOffset" : 130764
        },
        {
            "buffer" : 0,
            "byteLength" : 4224,
            "byteOffset" : 134988
        },
        {
            "buffer" : 0,
            "byteLength" : 2816,
            "byteOffset" : 139212
        },
        {
            "buffer" : 0,
            "byteLength" : 1032,
            "byteOffset" : 142028
        },
        {
            "buffer" : 0,
            "byteLength" : 5724,
            "byteOffset" : 143060
        },
        {
            "buffer" : 0,
            "byteLength" : 5724,
            "byteOffset" : 148784
        },
        {
            "buffer" : 0,
            "byteLength" : 3816,
            "byteOffset" : 154508
        },
        {
            "buffer" : 0,
            "byteLength" : 1476,
            "byteOffset" : 158324
        }
    ],
    "buffers" : [
        {
            "byteLength" : 159800,
            "uri" : "data:application/octet-stream;base64,"
        }
    ]
}
