{
    "asset" : {
        "generator" : "Khronos glTF Blender I/O v1.3.48",
        "version" : "2.0"
    },
    "scene" : 0,
    "scenes" : [
        {
            "name" : "Scene",
            "nodes" : [
                0,
                1,
                2
            ]
        }
    ],
    "nodes" : [
        {
            "mesh" : 0,
            "name" : "Deepfryer_basket1",
            "translation" : [
                0.39338207244873047,
                1.243867039680481,
                -4.22852897644043
            ]
        },
        {
            "mesh" : 1,
            "name" : "Deepfryer",
            "translation" : [
                0.5936040878295898,
                0.009317845106124878,
                -4.1919660568237305
            ]
        },
        {
            "mesh" : 2,
            "name" : "Deepfryer_basket2",
            "translation" : [
                0.8602737188339233,
                1.243867039680481,
                -4.22852897644043
            ]
        }
    ],
    "materials" : [
        {
            "doubleSided" : true,
            "emissiveFactor" : [
                0,
                0,
                0
            ],
            "name" : "freezer-hardware",
            "pbrMetallicRoughness" : {
                "baseColorTexture" : {
                    "index" : 0,
                    "texCoord" : 0
                },
                "metallicFactor" : 0,
                "roughnessFactor" : 0.5
            }
        },
        {
            "doubleSided" : true,
            "emissiveFactor" : [
                0,
                0,
                0
            ],
            "name" : "metal",
            "pbrMetallicRoughness" : {
                "baseColorTexture" : {
                    "index" : 1,
                    "texCoord" : 0
                },
                "metallicFactor" : 1,
                "roughnessFactor" : 0.19999998807907104
            }
        }
    ],
    "meshes" : [
        {
            "name" : "Cube.014",
            "primitives" : [
                {
                    "attributes" : {
                        "POSITION" : 0,
                        "NORMAL" : 1,
                        "TEXCOORD_0" : 2
                    },
                    "indices" : 3,
                    "material" : 0
                },
                {
                    "attributes" : {
                        "POSITION" : 4,
                        "NORMAL" : 5,
                        "TEXCOORD_0" : 6
                    },
                    "indices" : 7,
                    "material" : 1
                }
            ]
        },
        {
            "name" : "Cube.026",
            "primitives" : [
                {
                    "attributes" : {
                        "POSITION" : 8,
                        "NORMAL" : 9,
                        "TEXCOORD_0" : 10
                    },
                    "indices" : 11,
                    "material" : 1
                },
                {
                    "attributes" : {
                        "POSITION" : 12,
                        "NORMAL" : 13,
                        "TEXCOORD_0" : 14
                    },
                    "indices" : 15,
                    "material" : 0
                }
            ]
        },
        {
            "name" : "Cube.068",
            "primitives" : [
                {
                    "attributes" : {
                        "POSITION" : 16,
                        "NORMAL" : 17,
                        "TEXCOORD_0" : 18
                    },
                    "indices" : 3,
                    "material" : 0
                },
                {
                    "attributes" : {
                        "POSITION" : 19,
                        "NORMAL" : 20,
                        "TEXCOORD_0" : 21
                    },
                    "indices" : 7,
                    "material" : 1
                }
            ]
        }
    ],
    "textures" : [
        {
            "source" : 0
        },
        {
            "source" : 1
        }
    ],
    "images" : [
        {
            "bufferView" : 4,
            "mimeType" : "image/jpeg",
            "name" : "freezerHardwareTexture"
        },
        {
            "bufferView" : 9,
            "mimeType" : "image/jpeg",
            "name" : "aluminum"
        }
    ],
    "accessors" : [
        {
            "bufferView" : 0,
            "componentType" : 5126,
            "count" : 40,
            "max" : [
                0.23391994833946228,
                0.10535280406475067,
                0.4457315504550934
            ],
            "min" : [
                -0.1927402764558792,
                -0.09984748065471649,
                -0.44810155034065247
            ],
            "type" : "VEC3"
        },
        {
            "bufferView" : 1,
            "componentType" : 5126,
            "count" : 40,
            "type" : "VEC3"
        },
        {
            "bufferView" : 2,
            "componentType" : 5126,
            "count" : 40,
            "type" : "VEC2"
        },
        {
            "bufferView" : 3,
            "componentType" : 5123,
            "count" : 60,
            "type" : "SCALAR"
        },
        {
            "bufferView" : 5,
            "componentType" : 5126,
            "count" : 876,
            "max" : [
                0.2399991750717163,
                0.22275817394256592,
                0.6585425734519958
            ],
            "min" : [
                -0.1982816457748413,
                0.10528893768787384,
                -0.4725179970264435
            ],
            "type" : "VEC3"
        },
        {
            "bufferView" : 6,
            "componentType" : 5126,
            "count" : 876,
            "type" : "VEC3"
        },
        {
            "bufferView" : 7,
            "componentType" : 5126,
            "count" : 876,
            "type" : "VEC2"
        },
        {
            "bufferView" : 8,
            "componentType" : 5123,
            "count" : 1290,
            "type" : "SCALAR"
        },
        {
            "bufferView" : 10,
            "componentType" : 5126,
            "count" : 431,
            "max" : [
                0.5853171944618225,
                1.4871282577514648,
                0.5847433805465698
            ],
            "min" : [
                -0.4695332944393158,
                -0.002875581616535783,
                -0.5816371440887451
            ],
            "type" : "VEC3"
        },
        {
            "bufferView" : 11,
            "componentType" : 5126,
            "count" : 431,
            "type" : "VEC3"
        },
        {
            "bufferView" : 12,
            "componentType" : 5126,
            "count" : 431,
            "type" : "VEC2"
        },
        {
            "bufferView" : 13,
            "componentType" : 5123,
            "count" : 672,
            "type" : "SCALAR"
        },
        {
            "bufferView" : 14,
            "componentType" : 5126,
            "count" : 204,
            "max" : [
                0.5853171348571777,
                1.384155511856079,
                0.58726966381073
            ],
            "min" : [
                -0.4695332944393158,
                0.8603977560997009,
                -0.521449625492096
            ],
            "type" : "VEC3"
        },
        {
            "bufferView" : 15,
            "componentType" : 5126,
            "count" : 204,
            "type" : "VEC3"
        },
        {
            "bufferView" : 16,
            "componentType" : 5126,
            "count" : 204,
            "type" : "VEC2"
        },
        {
            "bufferView" : 17,
            "componentType" : 5123,
            "count" : 318,
            "type" : "SCALAR"
        },
        {
            "bufferView" : 18,
            "componentType" : 5126,
            "count" : 40,
            "max" : [
                0.23391994833946228,
                0.10535280406475067,
                0.4457315504550934
            ],
            "min" : [
                -0.1927402764558792,
                -0.09984748065471649,
                -0.44810155034065247
            ],
            "type" : "VEC3"
        },
        {
            "bufferView" : 19,
            "componentType" : 5126,
            "count" : 40,
            "type" : "VEC3"
        },
        {
            "bufferView" : 20,
            "componentType" : 5126,
            "count" : 40,
            "type" : "VEC2"
        },
        {
            "bufferView" : 21,
            "componentType" : 5126,
            "count" : 876,
            "max" : [
                0.2399991750717163,
                0.22275817394256592,
                0.6585425734519958
            ],
            "min" : [
                -0.1982816457748413,
                0.10528893768787384,
                -0.4725179970264435
            ],
            "type" : "VEC3"
        },
        {
            "bufferView" : 22,
            "componentType" : 5126,
            "count" : 876,
            "type" : "VEC3"
        },
        {
            "bufferView" : 23,
            "componentType" : 5126,
            "count" : 876,
            "type" : "VEC2"
        }
    ],
    "bufferViews" : [
        {
            "buffer" : 0,
            "byteLength" : 480,
            "byteOffset" : 0
        },
        {
            "buffer" : 0,
            "byteLength" : 480,
            "byteOffset" : 480
        },
        {
            "buffer" : 0,
            "byteLength" : 320,
            "byteOffset" : 960
        },
        {
            "buffer" : 0,
            "byteLength" : 120,
            "byteOffset" : 1280
        },
        {
            "buffer" : 0,
            "byteLength" : 41813,
            "byteOffset" : 1400
        },
        {
            "buffer" : 0,
            "byteLength" : 10512,
            "byteOffset" : 43216
        },
        {
            "buffer" : 0,
            "byteLength" : 10512,
            "byteOffset" : 53728
        },
        {
            "buffer" : 0,
            "byteLength" : 7008,
            "byteOffset" : 64240
        },
        {
            "buffer" : 0,
            "byteLength" : 2580,
            "byteOffset" : 71248
        },
        {
            "buffer" : 0,
            "byteLength" : 33650,
            "byteOffset" : 73828
        },
        {
            "buffer" : 0,
            "byteLength" : 5172,
            "byteOffset" : 107480
        },
        {
            "buffer" : 0,
            "byteLength" : 5172,
            "byteOffset" : 112652
        },
        {
            "buffer" : 0,
            "byteLength" : 3448,
            "byteOffset" : 117824
        },
        {
            "buffer" : 0,
            "byteLength" : 1344,
            "byteOffset" : 121272
        },
        {
            "buffer" : 0,
            "byteLength" : 2448,
            "byteOffset" : 122616
        },
        {
            "buffer" : 0,
            "byteLength" : 2448,
            "byteOffset" : 125064
        },
        {
            "buffer" : 0,
            "byteLength" : 1632,
            "byteOffset" : 127512
        },
        {
            "buffer" : 0,
            "byteLength" : 636,
            "byteOffset" : 129144
        },
        {
            "buffer" : 0,
            "byteLength" : 480,
            "byteOffset" : 129780
        },
        {
            "buffer" : 0,
            "byteLength" : 480,
            "byteOffset" : 130260
        },
        {
            "buffer" : 0,
            "byteLength" : 320,
            "byteOffset" : 130740
        },
        {
            "buffer" : 0,
            "byteLength" : 10512,
            "byteOffset" : 131060
        },
        {
            "buffer" : 0,
            "byteLength" : 10512,
            "byteOffset" : 141572
        },
        {
            "buffer" : 0,
            "byteLength" : 7008,
            "byteOffset" : 152084
        }
    ],
    "buffers" : [
        {
            "byteLength" : 159092,
            "uri" : "data:application/octet-stream;base64,"
        }
    ]
}
