{
    "asset" : {
        "generator" : "Khronos glTF Blender I/O v1.3.48",
        "version" : "2.0"
    },
    "scene" : 0,
    "scenes" : [
        {
            "name" : "Scene",
            "nodes" : [
                0,
                1,
                2,
                3
            ]
        }
    ],
    "nodes" : [
        {
            "mesh" : 0,
            "name" : "Oven-vent",
            "translation" : [
                1.9893724918365479,
                0.009196996688842773,
                -4.196403503417969
            ]
        },
        {
            "mesh" : 1,
            "name" : "Oven_door",
            "translation" : [
                1.9893724918365479,
                0.24651457369327545,
                -3.654905319213867
            ]
        },
        {
            "mesh" : 2,
            "name" : "Oven",
            "translation" : [
                1.9893724918365479,
                0.009317845106124878,
                -4.196403503417969
            ]
        },
        {
            "mesh" : 3,
            "name" : "Oven_rack",
            "translation" : [
                1.9893724918365479,
                0.009317845106124878,
                -4.196403503417969
            ]
        }
    ],
    "materials" : [
        {
            "doubleSided" : true,
            "emissiveFactor" : [
                0,
                0,
                0
            ],
            "name" : "metal",
            "pbrMetallicRoughness" : {
                "baseColorTexture" : {
                    "index" : 0,
                    "texCoord" : 0
                },
                "metallicFactor" : 1,
                "roughnessFactor" : 0.19999998807907104
            }
        },
        {
            "doubleSided" : true,
            "emissiveFactor" : [
                0,
                0,
                0
            ],
            "name" : "oven-vent",
            "pbrMetallicRoughness" : {
                "baseColorTexture" : {
                    "index" : 1,
                    "texCoord" : 0
                },
                "metallicFactor" : 0,
                "roughnessFactor" : 1
            }
        },
        {
            "doubleSided" : true,
            "emissiveFactor" : [
                0,
                0,
                0
            ],
            "name" : "freezer-hardware",
            "pbrMetallicRoughness" : {
                "baseColorTexture" : {
                    "index" : 2,
                    "texCoord" : 0
                },
                "metallicFactor" : 0,
                "roughnessFactor" : 0.5
            }
        },
        {
            "doubleSided" : true,
            "emissiveFactor" : [
                0,
                0,
                0
            ],
            "name" : "chrome",
            "pbrMetallicRoughness" : {
                "baseColorFactor" : [
                    0.5271152257919312,
                    0.5271152257919312,
                    0.5271152257919312,
                    1
                ],
                "metallicFactor" : 1,
                "roughnessFactor" : 0.1964980959892273
            }
        }
    ],
    "meshes" : [
        {
            "name" : "Cube.019",
            "primitives" : [
                {
                    "attributes" : {
                        "POSITION" : 0,
                        "NORMAL" : 1,
                        "TEXCOORD_0" : 2
                    },
                    "indices" : 3,
                    "material" : 0
                },
                {
                    "attributes" : {
                        "POSITION" : 4,
                        "NORMAL" : 5,
                        "TEXCOORD_0" : 6
                    },
                    "indices" : 7,
                    "material" : 1
                }
            ]
        },
        {
            "name" : "Cube.046",
            "primitives" : [
                {
                    "attributes" : {
                        "POSITION" : 8,
                        "NORMAL" : 9,
                        "TEXCOORD_0" : 10
                    },
                    "indices" : 11,
                    "material" : 0
                },
                {
                    "attributes" : {
                        "POSITION" : 12,
                        "NORMAL" : 13,
                        "TEXCOORD_0" : 14
                    },
                    "indices" : 7,
                    "material" : 2
                },
                {
                    "attributes" : {
                        "POSITION" : 15,
                        "NORMAL" : 16,
                        "TEXCOORD_0" : 17
                    },
                    "indices" : 18,
                    "material" : 3
                }
            ]
        },
        {
            "name" : "Cube.043",
            "primitives" : [
                {
                    "attributes" : {
                        "POSITION" : 19,
                        "NORMAL" : 20,
                        "TEXCOORD_0" : 21
                    },
                    "indices" : 22,
                    "material" : 0
                },
                {
                    "attributes" : {
                        "POSITION" : 23,
                        "NORMAL" : 24,
                        "TEXCOORD_0" : 25
                    },
                    "indices" : 26,
                    "material" : 2
                }
            ]
        },
        {
            "name" : "Cube.095",
            "primitives" : [
                {
                    "attributes" : {
                        "POSITION" : 27,
                        "NORMAL" : 28,
                        "TEXCOORD_0" : 29
                    },
                    "indices" : 30,
                    "material" : 3
                }
            ]
        }
    ],
    "textures" : [
        {
            "source" : 0
        },
        {
            "source" : 1
        },
        {
            "source" : 2
        }
    ],
    "images" : [
        {
            "bufferView" : 4,
            "mimeType" : "image/jpeg",
            "name" : "aluminum"
        },
        {
            "bufferView" : 9,
            "mimeType" : "image/jpeg",
            "name" : "dirty-screen"
        },
        {
            "bufferView" : 17,
            "mimeType" : "image/jpeg",
            "name" : "freezerHardwareTexture"
        }
    ],
    "accessors" : [
        {
            "bufferView" : 0,
            "componentType" : 5126,
            "count" : 220,
            "max" : [
                0.7711284756660461,
                3.4969403743743896,
                0.5307814478874207
            ],
            "min" : [
                -0.7711284756660461,
                2.059973955154419,
                -0.5701964497566223
            ],
            "type" : "VEC3"
        },
        {
            "bufferView" : 1,
            "componentType" : 5126,
            "count" : 220,
            "type" : "VEC3"
        },
        {
            "bufferView" : 2,
            "componentType" : 5126,
            "count" : 220,
            "type" : "VEC2"
        },
        {
            "bufferView" : 3,
            "componentType" : 5123,
            "count" : 336,
            "type" : "SCALAR"
        },
        {
            "bufferView" : 5,
            "componentType" : 5126,
            "count" : 4,
            "max" : [
                0.6789827942848206,
                2.159719705581665,
                0.4167475998401642
            ],
            "min" : [
                -0.6789827942848206,
                2.159719705581665,
                -0.5302901268005371
            ],
            "type" : "VEC3"
        },
        {
            "bufferView" : 6,
            "componentType" : 5126,
            "count" : 4,
            "type" : "VEC3"
        },
        {
            "bufferView" : 7,
            "componentType" : 5126,
            "count" : 4,
            "type" : "VEC2"
        },
        {
            "bufferView" : 8,
            "componentType" : 5123,
            "count" : 6,
            "type" : "SCALAR"
        },
        {
            "bufferView" : 10,
            "componentType" : 5126,
            "count" : 340,
            "max" : [
                0.6794227361679077,
                0.7421108484268188,
                0.10545802116394043
            ],
            "min" : [
                -0.6794222593307495,
                0.005784273147583008,
                -0.05268755927681923
            ],
            "type" : "VEC3"
        },
        {
            "bufferView" : 11,
            "componentType" : 5126,
            "count" : 340,
            "type" : "VEC3"
        },
        {
            "bufferView" : 12,
            "componentType" : 5126,
            "count" : 340,
            "type" : "VEC2"
        },
        {
            "bufferView" : 13,
            "componentType" : 5123,
            "count" : 498,
            "type" : "SCALAR"
        },
        {
            "bufferView" : 14,
            "componentType" : 5126,
            "count" : 4,
            "max" : [
                0.6744227409362793,
                0.7371108531951904,
                -0.05268755927681923
            ],
            "min" : [
                -0.6744222640991211,
                0.010784272104501724,
                -0.05268755927681923
            ],
            "type" : "VEC3"
        },
        {
            "bufferView" : 15,
            "componentType" : 5126,
            "count" : 4,
            "type" : "VEC3"
        },
        {
            "bufferView" : 16,
            "componentType" : 5126,
            "count" : 4,
            "type" : "VEC2"
        },
        {
            "bufferView" : 18,
            "componentType" : 5126,
            "count" : 26,
            "max" : [
                0.5791715979576111,
                0.5677980184555054,
                0.09709934145212173
            ],
            "min" : [
                -0.5781154036521912,
                0.5337979793548584,
                0.06309934705495834
            ],
            "type" : "VEC3"
        },
        {
            "bufferView" : 19,
            "componentType" : 5126,
            "count" : 26,
            "type" : "VEC3"
        },
        {
            "bufferView" : 20,
            "componentType" : 5126,
            "count" : 26,
            "type" : "VEC2"
        },
        {
            "bufferView" : 21,
            "componentType" : 5123,
            "count" : 72,
            "type" : "SCALAR"
        },
        {
            "bufferView" : 22,
            "componentType" : 5126,
            "count" : 1360,
            "max" : [
                0.7863299250602722,
                1.483927607536316,
                0.5486384630203247
            ],
            "min" : [
                -0.7863299250602722,
                -0.002875581616535783,
                -0.5728679895401001
            ],
            "type" : "VEC3"
        },
        {
            "bufferView" : 23,
            "componentType" : 5126,
            "count" : 1360,
            "type" : "VEC3"
        },
        {
            "bufferView" : 24,
            "componentType" : 5126,
            "count" : 1360,
            "type" : "VEC2"
        },
        {
            "bufferView" : 25,
            "componentType" : 5123,
            "count" : 2298,
            "type" : "SCALAR"
        },
        {
            "bufferView" : 26,
            "componentType" : 5126,
            "count" : 5354,
            "max" : [
                0.7413371801376343,
                1.4404648542404175,
                0.5312950611114502
            ],
            "min" : [
                -0.7286189794540405,
                0.2648206651210785,
                -0.5066986680030823
            ],
            "type" : "VEC3"
        },
        {
            "bufferView" : 27,
            "componentType" : 5126,
            "count" : 5354,
            "type" : "VEC3"
        },
        {
            "bufferView" : 28,
            "componentType" : 5126,
            "count" : 5354,
            "type" : "VEC2"
        },
        {
            "bufferView" : 29,
            "componentType" : 5123,
            "count" : 8148,
            "type" : "SCALAR"
        },
        {
            "bufferView" : 30,
            "componentType" : 5126,
            "count" : 853,
            "max" : [
                0.6334331035614014,
                0.42731988430023193,
                0.49601736664772034
            ],
            "min" : [
                -0.6334332227706909,
                0.4157038927078247,
                -0.24918127059936523
            ],
            "type" : "VEC3"
        },
        {
            "bufferView" : 31,
            "componentType" : 5126,
            "count" : 853,
            "type" : "VEC3"
        },
        {
            "bufferView" : 32,
            "componentType" : 5126,
            "count" : 853,
            "type" : "VEC2"
        },
        {
            "bufferView" : 33,
            "componentType" : 5123,
            "count" : 1812,
            "type" : "SCALAR"
        }
    ],
    "bufferViews" : [
        {
            "buffer" : 0,
            "byteLength" : 2640,
            "byteOffset" : 0
        },
        {
            "buffer" : 0,
            "byteLength" : 2640,
            "byteOffset" : 2640
        },
        {
            "buffer" : 0,
            "byteLength" : 1760,
            "byteOffset" : 5280
        },
        {
            "buffer" : 0,
            "byteLength" : 672,
            "byteOffset" : 7040
        },
        {
            "buffer" : 0,
            "byteLength" : 33650,
            "byteOffset" : 7712
        },
        {
            "buffer" : 0,
            "byteLength" : 48,
            "byteOffset" : 41364
        },
        {
            "buffer" : 0,
            "byteLength" : 48,
            "byteOffset" : 41412
        },
        {
            "buffer" : 0,
            "byteLength" : 32,
            "byteOffset" : 41460
        },
        {
            "buffer" : 0,
            "byteLength" : 12,
            "byteOffset" : 41492
        },
        {
            "buffer" : 0,
            "byteLength" : 131211,
            "byteOffset" : 41504
        },
        {
            "buffer" : 0,
            "byteLength" : 4080,
            "byteOffset" : 172716
        },
        {
            "buffer" : 0,
            "byteLength" : 4080,
            "byteOffset" : 176796
        },
        {
            "buffer" : 0,
            "byteLength" : 2720,
            "byteOffset" : 180876
        },
        {
            "buffer" : 0,
            "byteLength" : 996,
            "byteOffset" : 183596
        },
        {
            "buffer" : 0,
            "byteLength" : 48,
            "byteOffset" : 184592
        },
        {
            "buffer" : 0,
            "byteLength" : 48,
            "byteOffset" : 184640
        },
        {
            "buffer" : 0,
            "byteLength" : 32,
            "byteOffset" : 184688
        },
        {
            "buffer" : 0,
            "byteLength" : 41813,
            "byteOffset" : 184720
        },
        {
            "buffer" : 0,
            "byteLength" : 312,
            "byteOffset" : 226536
        },
        {
            "buffer" : 0,
            "byteLength" : 312,
            "byteOffset" : 226848
        },
        {
            "buffer" : 0,
            "byteLength" : 208,
            "byteOffset" : 227160
        },
        {
            "buffer" : 0,
            "byteLength" : 144,
            "byteOffset" : 227368
        },
        {
            "buffer" : 0,
            "byteLength" : 16320,
            "byteOffset" : 227512
        },
        {
            "buffer" : 0,
            "byteLength" : 16320,
            "byteOffset" : 243832
        },
        {
            "buffer" : 0,
            "byteLength" : 10880,
            "byteOffset" : 260152
        },
        {
            "buffer" : 0,
            "byteLength" : 4596,
            "byteOffset" : 271032
        },
        {
            "buffer" : 0,
            "byteLength" : 64248,
            "byteOffset" : 275628
        },
        {
            "buffer" : 0,
            "byteLength" : 64248,
            "byteOffset" : 339876
        },
        {
            "buffer" : 0,
            "byteLength" : 42832,
            "byteOffset" : 404124
        },
        {
            "buffer" : 0,
            "byteLength" : 16296,
            "byteOffset" : 446956
        },
        {
            "buffer" : 0,
            "byteLength" : 10236,
            "byteOffset" : 463252
        },
        {
            "buffer" : 0,
            "byteLength" : 10236,
            "byteOffset" : 473488
        },
        {
            "buffer" : 0,
            "byteLength" : 6824,
            "byteOffset" : 483724
        },
        {
            "buffer" : 0,
            "byteLength" : 3624,
            "byteOffset" : 490548
        }
    ],
    "buffers" : [
        {
            "byteLength" : 494172,
            "uri" : "data:application/octet-stream;base64,"
        }
    ]
}
