{
    "asset" : {
        "generator" : "Khronos glTF Blender I/O v1.3.48",
        "version" : "2.0"
    },
    "scene" : 0,
    "scenes" : [
        {
            "name" : "Scene",
            "nodes" : [
                0,
                1
            ]
        }
    ],
    "nodes" : [
        {
            "mesh" : 0,
            "name" : "Sealer",
            "translation" : [
                -3.226203680038452,
                1.2237627506256104,
                -4.1576385498046875
            ]
        },
        {
            "mesh" : 1,
            "name" : "Sealer_lid",
            "translation" : [
                -3.226203680038452,
                1.5601191520690918,
                -4.5848283767700195
            ]
        }
    ],
    "materials" : [
        {
            "doubleSided" : true,
            "emissiveFactor" : [
                0,
                0,
                0
            ],
            "name" : "metal",
            "pbrMetallicRoughness" : {
                "baseColorTexture" : {
                    "index" : 0,
                    "texCoord" : 0
                },
                "metallicFactor" : 1,
                "roughnessFactor" : 0.19999998807907104
            }
        },
        {
            "doubleSided" : true,
            "emissiveFactor" : [
                0,
                0,
                0
            ],
            "name" : "freezer-hardware",
            "pbrMetallicRoughness" : {
                "baseColorTexture" : {
                    "index" : 1,
                    "texCoord" : 0
                },
                "metallicFactor" : 0,
                "roughnessFactor" : 0.5
            }
        }
    ],
    "meshes" : [
        {
            "name" : "Cube.057",
            "primitives" : [
                {
                    "attributes" : {
                        "POSITION" : 0,
                        "NORMAL" : 1,
                        "TEXCOORD_0" : 2
                    },
                    "indices" : 3,
                    "material" : 0
                },
                {
                    "attributes" : {
                        "POSITION" : 4,
                        "NORMAL" : 5,
                        "TEXCOORD_0" : 6
                    },
                    "indices" : 7,
                    "material" : 1
                }
            ]
        },
        {
            "name" : "Cube.054",
            "primitives" : [
                {
                    "attributes" : {
                        "POSITION" : 8,
                        "NORMAL" : 9,
                        "TEXCOORD_0" : 10
                    },
                    "indices" : 11,
                    "material" : 0
                }
            ]
        }
    ],
    "textures" : [
        {
            "source" : 0
        },
        {
            "source" : 1
        }
    ],
    "images" : [
        {
            "bufferView" : 4,
            "mimeType" : "image/jpeg",
            "name" : "aluminum"
        },
        {
            "bufferView" : 9,
            "mimeType" : "image/jpeg",
            "name" : "freezerHardwareTexture"
        }
    ],
    "accessors" : [
        {
            "bufferView" : 0,
            "componentType" : 5126,
            "count" : 445,
            "max" : [
                0.2915014326572418,
                0.33713066577911377,
                0.43126192688941956
            ],
            "min" : [
                -0.2915014326572418,
                0.000859852705616504,
                -0.43219223618507385
            ],
            "type" : "VEC3"
        },
        {
            "bufferView" : 1,
            "componentType" : 5126,
            "count" : 445,
            "type" : "VEC3"
        },
        {
            "bufferView" : 2,
            "componentType" : 5126,
            "count" : 445,
            "type" : "VEC2"
        },
        {
            "bufferView" : 3,
            "componentType" : 5123,
            "count" : 696,
            "type" : "SCALAR"
        },
        {
            "bufferView" : 5,
            "componentType" : 5126,
            "count" : 304,
            "max" : [
                0.26767048239707947,
                0.13668835163116455,
                0.4293060600757599
            ],
            "min" : [
                -0.26767000555992126,
                0.024690918624401093,
                0.4198717176914215
            ],
            "type" : "VEC3"
        },
        {
            "bufferView" : 6,
            "componentType" : 5126,
            "count" : 304,
            "type" : "VEC3"
        },
        {
            "bufferView" : 7,
            "componentType" : 5126,
            "count" : 304,
            "type" : "VEC2"
        },
        {
            "bufferView" : 8,
            "componentType" : 5123,
            "count" : 510,
            "type" : "SCALAR"
        },
        {
            "bufferView" : 10,
            "componentType" : 5126,
            "count" : 96,
            "max" : [
                0.2915014326572418,
                0.05796512961387634,
                0.859446108341217
            ],
            "min" : [
                -0.2915014326572418,
                0.0008065120782703161,
                -0.004938398487865925
            ],
            "type" : "VEC3"
        },
        {
            "bufferView" : 11,
            "componentType" : 5126,
            "count" : 96,
            "type" : "VEC3"
        },
        {
            "bufferView" : 12,
            "componentType" : 5126,
            "count" : 96,
            "type" : "VEC2"
        },
        {
            "bufferView" : 13,
            "componentType" : 5123,
            "count" : 132,
            "type" : "SCALAR"
        }
    ],
    "bufferViews" : [
        {
            "buffer" : 0,
            "byteLength" : 5340,
            "byteOffset" : 0
        },
        {
            "buffer" : 0,
            "byteLength" : 5340,
            "byteOffset" : 5340
        },
        {
            "buffer" : 0,
            "byteLength" : 3560,
            "byteOffset" : 10680
        },
        {
            "buffer" : 0,
            "byteLength" : 1392,
            "byteOffset" : 14240
        },
        {
            "buffer" : 0,
            "byteLength" : 33650,
            "byteOffset" : 15632
        },
        {
            "buffer" : 0,
            "byteLength" : 3648,
            "byteOffset" : 49284
        },
        {
            "buffer" : 0,
            "byteLength" : 3648,
            "byteOffset" : 52932
        },
        {
            "buffer" : 0,
            "byteLength" : 2432,
            "byteOffset" : 56580
        },
        {
            "buffer" : 0,
            "byteLength" : 1020,
            "byteOffset" : 59012
        },
        {
            "buffer" : 0,
            "byteLength" : 41813,
            "byteOffset" : 60032
        },
        {
            "buffer" : 0,
            "byteLength" : 1152,
            "byteOffset" : 101848
        },
        {
            "buffer" : 0,
            "byteLength" : 1152,
            "byteOffset" : 103000
        },
        {
            "buffer" : 0,
            "byteLength" : 768,
            "byteOffset" : 104152
        },
        {
            "buffer" : 0,
            "byteLength" : 264,
            "byteOffset" : 104920
        }
    ],
    "buffers" : [
        {
            "byteLength" : 105184,
            "uri" : "data:application/octet-stream;base64,"
        }
    ]
}
