{
    "asset" : {
        "generator" : "Khronos glTF Blender I/O v1.3.48",
        "version" : "2.0"
    },
    "scene" : 0,
    "scenes" : [
        {
            "name" : "Scene",
            "nodes" : [
                0,
                1,
                2,
                3
            ]
        }
    ],
    "nodes" : [
        {
            "mesh" : 0,
            "name" : "Steam_table",
            "translation" : [
                3.879803419113159,
                0,
                -4.150492191314697
            ]
        },
        {
            "mesh" : 1,
            "name" : "steamer_lid1",
            "rotation" : [
                0,
                0.7071068286895752,
                0,
                0.7071068286895752
            ],
            "translation" : [
                3.2299273014068604,
                1.023751139640808,
                -4.200819969177246
            ]
        },
        {
            "mesh" : 2,
            "name" : "steamer_lid2",
            "rotation" : [
                0,
                0.7071068286895752,
                0,
                0.7071068286895752
            ],
            "translation" : [
                3.8847436904907227,
                1.023751139640808,
                -4.200819969177246
            ]
        },
        {
            "mesh" : 3,
            "name" : "steamer_lid3",
            "rotation" : [
                0,
                0.7071068286895752,
                0,
                0.7071068286895752
            ],
            "translation" : [
                4.5341949462890625,
                1.023751139640808,
                -4.200819969177246
            ]
        }
    ],
    "materials" : [
        {
            "doubleSided" : true,
            "emissiveFactor" : [
                0,
                0,
                0
            ],
            "name" : "metal",
            "pbrMetallicRoughness" : {
                "baseColorTexture" : {
                    "index" : 0,
                    "texCoord" : 0
                },
                "metallicFactor" : 1,
                "roughnessFactor" : 0.19999998807907104
            }
        },
        {
            "doubleSided" : true,
            "emissiveFactor" : [
                0,
                0,
                0
            ],
            "name" : "freezer-hardware",
            "pbrMetallicRoughness" : {
                "baseColorTexture" : {
                    "index" : 1,
                    "texCoord" : 0
                },
                "metallicFactor" : 0,
                "roughnessFactor" : 0.5
            }
        }
    ],
    "meshes" : [
        {
            "name" : "Cube.053",
            "primitives" : [
                {
                    "attributes" : {
                        "POSITION" : 0,
                        "NORMAL" : 1,
                        "TEXCOORD_0" : 2
                    },
                    "indices" : 3,
                    "material" : 0
                },
                {
                    "attributes" : {
                        "POSITION" : 4,
                        "NORMAL" : 5,
                        "TEXCOORD_0" : 6
                    },
                    "indices" : 7,
                    "material" : 1
                }
            ]
        },
        {
            "name" : "Cube.064",
            "primitives" : [
                {
                    "attributes" : {
                        "POSITION" : 8,
                        "NORMAL" : 9,
                        "TEXCOORD_0" : 10
                    },
                    "indices" : 11,
                    "material" : 0
                }
            ]
        },
        {
            "name" : "Cube.065",
            "primitives" : [
                {
                    "attributes" : {
                        "POSITION" : 12,
                        "NORMAL" : 13,
                        "TEXCOORD_0" : 14
                    },
                    "indices" : 11,
                    "material" : 0
                }
            ]
        },
        {
            "name" : "Cube.066",
            "primitives" : [
                {
                    "attributes" : {
                        "POSITION" : 15,
                        "NORMAL" : 16,
                        "TEXCOORD_0" : 17
                    },
                    "indices" : 11,
                    "material" : 0
                }
            ]
        }
    ],
    "textures" : [
        {
            "source" : 0
        },
        {
            "source" : 1
        }
    ],
    "images" : [
        {
            "bufferView" : 4,
            "mimeType" : "image/jpeg",
            "name" : "aluminum"
        },
        {
            "bufferView" : 9,
            "mimeType" : "image/jpeg",
            "name" : "freezerHardwareTexture"
        }
    ],
    "accessors" : [
        {
            "bufferView" : 0,
            "componentType" : 5126,
            "count" : 620,
            "max" : [
                1.0545578002929688,
                1.0995663404464722,
                0.7237284183502197
            ],
            "min" : [
                -1.043529748916626,
                0.003924667835235596,
                -0.6195768713951111
            ],
            "type" : "VEC3"
        },
        {
            "bufferView" : 1,
            "componentType" : 5126,
            "count" : 620,
            "type" : "VEC3"
        },
        {
            "bufferView" : 2,
            "componentType" : 5126,
            "count" : 620,
            "type" : "VEC2"
        },
        {
            "bufferView" : 3,
            "componentType" : 5123,
            "count" : 1008,
            "type" : "SCALAR"
        },
        {
            "bufferView" : 5,
            "componentType" : 5126,
            "count" : 162,
            "max" : [
                0.697079598903656,
                0.911757230758667,
                0.549237072467804
            ],
            "min" : [
                -0.6971967220306396,
                0.8132673501968384,
                0.5309777855873108
            ],
            "type" : "VEC3"
        },
        {
            "bufferView" : 6,
            "componentType" : 5126,
            "count" : 162,
            "type" : "VEC3"
        },
        {
            "bufferView" : 7,
            "componentType" : 5126,
            "count" : 162,
            "type" : "VEC2"
        },
        {
            "bufferView" : 8,
            "componentType" : 5123,
            "count" : 252,
            "type" : "SCALAR"
        },
        {
            "bufferView" : 10,
            "componentType" : 5126,
            "count" : 477,
            "max" : [
                0.47620582580566406,
                0.08244641125202179,
                0.2857615649700165
            ],
            "min" : [
                -0.47620582580566406,
                0.04613548517227173,
                -0.2857615649700165
            ],
            "type" : "VEC3"
        },
        {
            "bufferView" : 11,
            "componentType" : 5126,
            "count" : 477,
            "type" : "VEC3"
        },
        {
            "bufferView" : 12,
            "componentType" : 5126,
            "count" : 477,
            "type" : "VEC2"
        },
        {
            "bufferView" : 13,
            "componentType" : 5123,
            "count" : 738,
            "type" : "SCALAR"
        },
        {
            "bufferView" : 14,
            "componentType" : 5126,
            "count" : 477,
            "max" : [
                0.47620582580566406,
                0.08244641125202179,
                0.2857615649700165
            ],
            "min" : [
                -0.47620582580566406,
                0.04613548517227173,
                -0.2857615649700165
            ],
            "type" : "VEC3"
        },
        {
            "bufferView" : 15,
            "componentType" : 5126,
            "count" : 477,
            "type" : "VEC3"
        },
        {
            "bufferView" : 16,
            "componentType" : 5126,
            "count" : 477,
            "type" : "VEC2"
        },
        {
            "bufferView" : 17,
            "componentType" : 5126,
            "count" : 477,
            "max" : [
                0.47620582580566406,
                0.08244641125202179,
                0.2857615649700165
            ],
            "min" : [
                -0.47620582580566406,
                0.04613548517227173,
                -0.2857615649700165
            ],
            "type" : "VEC3"
        },
        {
            "bufferView" : 18,
            "componentType" : 5126,
            "count" : 477,
            "type" : "VEC3"
        },
        {
            "bufferView" : 19,
            "componentType" : 5126,
            "count" : 477,
            "type" : "VEC2"
        }
    ],
    "bufferViews" : [
        {
            "buffer" : 0,
            "byteLength" : 7440,
            "byteOffset" : 0
        },
        {
            "buffer" : 0,
            "byteLength" : 7440,
            "byteOffset" : 7440
        },
        {
            "buffer" : 0,
            "byteLength" : 4960,
            "byteOffset" : 14880
        },
        {
            "buffer" : 0,
            "byteLength" : 2016,
            "byteOffset" : 19840
        },
        {
            "buffer" : 0,
            "byteLength" : 33650,
            "byteOffset" : 21856
        },
        {
            "buffer" : 0,
            "byteLength" : 1944,
            "byteOffset" : 55508
        },
        {
            "buffer" : 0,
            "byteLength" : 1944,
            "byteOffset" : 57452
        },
        {
            "buffer" : 0,
            "byteLength" : 1296,
            "byteOffset" : 59396
        },
        {
            "buffer" : 0,
            "byteLength" : 504,
            "byteOffset" : 60692
        },
        {
            "buffer" : 0,
            "byteLength" : 41813,
            "byteOffset" : 61196
        },
        {
            "buffer" : 0,
            "byteLength" : 5724,
            "byteOffset" : 103012
        },
        {
            "buffer" : 0,
            "byteLength" : 5724,
            "byteOffset" : 108736
        },
        {
            "buffer" : 0,
            "byteLength" : 3816,
            "byteOffset" : 114460
        },
        {
            "buffer" : 0,
            "byteLength" : 1476,
            "byteOffset" : 118276
        },
        {
            "buffer" : 0,
            "byteLength" : 5724,
            "byteOffset" : 119752
        },
        {
            "buffer" : 0,
            "byteLength" : 5724,
            "byteOffset" : 125476
        },
        {
            "buffer" : 0,
            "byteLength" : 3816,
            "byteOffset" : 131200
        },
        {
            "buffer" : 0,
            "byteLength" : 5724,
            "byteOffset" : 135016
        },
        {
            "buffer" : 0,
            "byteLength" : 5724,
            "byteOffset" : 140740
        },
        {
            "buffer" : 0,
            "byteLength" : 3816,
            "byteOffset" : 146464
        }
    ],
    "buffers" : [
        {
            "byteLength" : 150280,
            "uri" : "data:application/octet-stream;base64,"
        }
    ]
}
