{
    "asset" : {
        "generator" : "Khronos glTF Blender I/O v1.3.48",
        "version" : "2.0"
    },
    "scene" : 0,
    "scenes" : [
        {
            "name" : "Scene",
            "nodes" : [
                0,
                1,
                2,
                3
            ]
        }
    ],
    "nodes" : [
        {
            "mesh" : 0,
            "name" : "Plate"
        },
        {
            "mesh" : 1,
            "name" : "Bowl_s"
        },
        {
            "mesh" : 2,
            "name" : "Bowl_d"
        },
        {
            "mesh" : 3,
            "name" : "Cup",
            "translation" : [
                -0.5645765066146851,
                0,
                -0.04049372673034668
            ]
        }
    ],
    "materials" : [
        {
            "doubleSided" : true,
            "emissiveFactor" : [
                0,
                0,
                0
            ],
            "name" : "white",
            "pbrMetallicRoughness" : {
                "baseColorFactor" : [
                    0.800000011920929,
                    0.800000011920929,
                    0.800000011920929,
                    1
                ],
                "metallicFactor" : 0,
                "roughnessFactor" : 0.3054474890232086
            }
        },
        {
            "doubleSided" : true,
            "emissiveFactor" : [
                0,
                0,
                0
            ],
            "name" : "white.001",
            "pbrMetallicRoughness" : {
                "baseColorFactor" : [
                    0.800000011920929,
                    0.800000011920929,
                    0.800000011920929,
                    1
                ],
                "metallicFactor" : 0,
                "roughnessFactor" : 0.3054474890232086
            }
        }
    ],
    "meshes" : [
        {
            "name" : "Sphere.016",
            "primitives" : [
                {
                    "attributes" : {
                        "POSITION" : 0,
                        "NORMAL" : 1,
                        "TEXCOORD_0" : 2
                    },
                    "indices" : 3,
                    "material" : 0
                }
            ]
        },
        {
            "name" : "Sphere.017",
            "primitives" : [
                {
                    "attributes" : {
                        "POSITION" : 4,
                        "NORMAL" : 5,
                        "TEXCOORD_0" : 6
                    },
                    "indices" : 7,
                    "material" : 0
                }
            ]
        },
        {
            "name" : "Sphere.014",
            "primitives" : [
                {
                    "attributes" : {
                        "POSITION" : 8,
                        "NORMAL" : 9,
                        "TEXCOORD_0" : 10
                    },
                    "indices" : 7,
                    "material" : 0
                }
            ]
        },
        {
            "name" : "Sphere.000",
            "primitives" : [
                {
                    "attributes" : {
                        "POSITION" : 11,
                        "NORMAL" : 12,
                        "TEXCOORD_0" : 13
                    },
                    "indices" : 14,
                    "material" : 1
                }
            ]
        }
    ],
    "accessors" : [
        {
            "bufferView" : 0,
            "componentType" : 5126,
            "count" : 210,
            "max" : [
                0.18161100149154663,
                0.02638234943151474,
                0.1845877766609192
            ],
            "min" : [
                -0.18276765942573547,
                0.0021101203747093678,
                -0.1891615390777588
            ],
            "type" : "VEC3"
        },
        {
            "bufferView" : 1,
            "componentType" : 5126,
            "count" : 210,
            "type" : "VEC3"
        },
        {
            "bufferView" : 2,
            "componentType" : 5126,
            "count" : 210,
            "type" : "VEC2"
        },
        {
            "bufferView" : 3,
            "componentType" : 5123,
            "count" : 828,
            "type" : "SCALAR"
        },
        {
            "bufferView" : 4,
            "componentType" : 5126,
            "count" : 240,
            "max" : [
                0.1870424449443817,
                0.09187743067741394,
                0.1961476355791092
            ],
            "min" : [
                -0.18601207435131073,
                0.0011220515007153153,
                -0.1865006536245346
            ],
            "type" : "VEC3"
        },
        {
            "bufferView" : 5,
            "componentType" : 5126,
            "count" : 240,
            "type" : "VEC3"
        },
        {
            "bufferView" : 6,
            "componentType" : 5126,
            "count" : 240,
            "type" : "VEC2"
        },
        {
            "bufferView" : 7,
            "componentType" : 5123,
            "count" : 1164,
            "type" : "SCALAR"
        },
        {
            "bufferView" : 8,
            "componentType" : 5126,
            "count" : 240,
            "max" : [
                0.1809951364994049,
                0.15432870388031006,
                0.18737828731536865
            ],
            "min" : [
                -0.1833835244178772,
                0.0024326457642018795,
                -0.18637102842330933
            ],
            "type" : "VEC3"
        },
        {
            "bufferView" : 9,
            "componentType" : 5126,
            "count" : 240,
            "type" : "VEC3"
        },
        {
            "bufferView" : 10,
            "componentType" : 5126,
            "count" : 240,
            "type" : "VEC2"
        },
        {
            "bufferView" : 11,
            "componentType" : 5126,
            "count" : 148,
            "max" : [
                0.06164466589689255,
                0.18566490709781647,
                0.06323006749153137
            ],
            "min" : [
                -0.06164468079805374,
                0.0009456276893615723,
                -0.06322988122701645
            ],
            "type" : "VEC3"
        },
        {
            "bufferView" : 12,
            "componentType" : 5126,
            "count" : 148,
            "type" : "VEC3"
        },
        {
            "bufferView" : 13,
            "componentType" : 5126,
            "count" : 148,
            "type" : "VEC2"
        },
        {
            "bufferView" : 14,
            "componentType" : 5123,
            "count" : 492,
            "type" : "SCALAR"
        }
    ],
    "bufferViews" : [
        {
            "buffer" : 0,
            "byteLength" : 2520,
            "byteOffset" : 0
        },
        {
            "buffer" : 0,
            "byteLength" : 2520,
            "byteOffset" : 2520
        },
        {
            "buffer" : 0,
            "byteLength" : 1680,
            "byteOffset" : 5040
        },
        {
            "buffer" : 0,
            "byteLength" : 1656,
            "byteOffset" : 6720
        },
        {
            "buffer" : 0,
            "byteLength" : 2880,
            "byteOffset" : 8376
        },
        {
            "buffer" : 0,
            "byteLength" : 2880,
            "byteOffset" : 11256
        },
        {
            "buffer" : 0,
            "byteLength" : 1920,
            "byteOffset" : 14136
        },
        {
            "buffer" : 0,
            "byteLength" : 2328,
            "byteOffset" : 16056
        },
        {
            "buffer" : 0,
            "byteLength" : 2880,
            "byteOffset" : 18384
        },
        {
            "buffer" : 0,
            "byteLength" : 2880,
            "byteOffset" : 21264
        },
        {
            "buffer" : 0,
            "byteLength" : 1920,
            "byteOffset" : 24144
        },
        {
            "buffer" : 0,
            "byteLength" : 1776,
            "byteOffset" : 26064
        },
        {
            "buffer" : 0,
            "byteLength" : 1776,
            "byteOffset" : 27840
        },
        {
            "buffer" : 0,
            "byteLength" : 1184,
            "byteOffset" : 29616
        },
        {
            "buffer" : 0,
            "byteLength" : 984,
            "byteOffset" : 30800
        }
    ],
    "buffers" : [
        {
            "byteLength" : 31784,
            "uri" : "data:application/octet-stream;base64,"
        }
    ]
}
