{
    "asset" : {
        "generator" : "Khronos glTF Blender I/O v1.3.48",
        "version" : "2.0"
    },
    "scene" : 0,
    "scenes" : [
        {
            "name" : "Scene",
            "nodes" : [
                0,
                1,
                2,
                3
            ]
        }
    ],
    "nodes" : [
        {
            "mesh" : 0,
            "name" : "Fridge",
            "rotation" : [
                0,
                0.7071065902709961,
                0,
                -0.7071069478988647
            ],
            "translation" : [
                3.917762279510498,
                0,
                0.010161876678466797
            ]
        },
        {
            "mesh" : 1,
            "name" : "fridge_doorL",
            "rotation" : [
                0,
                0.7071065902709961,
                0,
                -0.7071069478988647
            ],
            "translation" : [
                3.917762279510498,
                1.2574996948242188,
                -1.225946068763733
            ]
        },
        {
            "mesh" : 2,
            "name" : "fridge_doorR",
            "rotation" : [
                0,
                0.7071065902709961,
                0,
                -0.7071069478988647
            ],
            "translation" : [
                3.917762279510498,
                1.257735013961792,
                0.5570043325424194
            ]
        },
        {
            "mesh" : 3,
            "name" : "ShelfCollider",
            "rotation" : [
                0,
                0.7071065902709961,
                0,
                -0.7071069478988647
            ],
            "translation" : [
                4.315536022186279,
                0.424157977104187,
                -0.33466777205467224
            ]
        }
    ],
    "materials" : [
        {
            "doubleSided" : true,
            "emissiveFactor" : [
                0,
                0,
                0
            ],
            "name" : "shelf-glass",
            "pbrMetallicRoughness" : {
                "baseColorFactor" : [
                    0.39411991834640503,
                    0.6599948406219482,
                    0.6528871655464172,
                    0.35600000619888306
                ],
                "metallicFactor" : 0,
                "roughnessFactor" : 0
            }
        },
        {
            "doubleSided" : true,
            "emissiveFactor" : [
                0,
                0,
                0
            ],
            "name" : "fridge",
            "pbrMetallicRoughness" : {
                "baseColorTexture" : {
                    "index" : 0,
                    "texCoord" : 0
                },
                "metallicFactor" : 1,
                "roughnessFactor" : 0.20000000298023224
            }
        },
        {
            "doubleSided" : true,
            "emissiveFactor" : [
                0.800000011920929,
                0.800000011920929,
                0.800000011920929
            ],
            "name" : "emissive-light",
            "pbrMetallicRoughness" : {}
        },
        {
            "doubleSided" : true,
            "emissiveFactor" : [
                0,
                0,
                0
            ],
            "name" : "fridge-light-texture",
            "pbrMetallicRoughness" : {
                "baseColorTexture" : {
                    "index" : 1,
                    "texCoord" : 0
                },
                "metallicFactor" : 0,
                "roughnessFactor" : 0.5
            }
        }
    ],
    "meshes" : [
        {
            "name" : "Cube.007",
            "primitives" : [
                {
                    "attributes" : {
                        "POSITION" : 0,
                        "NORMAL" : 1,
                        "TEXCOORD_0" : 2
                    },
                    "indices" : 3,
                    "material" : 0
                },
                {
                    "attributes" : {
                        "POSITION" : 4,
                        "NORMAL" : 5,
                        "TEXCOORD_0" : 6
                    },
                    "indices" : 7,
                    "material" : 1
                },
                {
                    "attributes" : {
                        "POSITION" : 8,
                        "NORMAL" : 9,
                        "TEXCOORD_0" : 10
                    },
                    "indices" : 11,
                    "material" : 2
                },
                {
                    "attributes" : {
                        "POSITION" : 12,
                        "NORMAL" : 13,
                        "TEXCOORD_0" : 14
                    },
                    "indices" : 15,
                    "material" : 3
                }
            ]
        },
        {
            "name" : "Cube.004",
            "primitives" : [
                {
                    "attributes" : {
                        "POSITION" : 16,
                        "NORMAL" : 17,
                        "TEXCOORD_0" : 18
                    },
                    "indices" : 19,
                    "material" : 1
                }
            ]
        },
        {
            "name" : "Cube.001",
            "primitives" : [
                {
                    "attributes" : {
                        "POSITION" : 20,
                        "NORMAL" : 21,
                        "TEXCOORD_0" : 22
                    },
                    "indices" : 23,
                    "material" : 1
                }
            ]
        },
        {
            "name" : "Cube.084",
            "primitives" : [
                {
                    "attributes" : {
                        "POSITION" : 24,
                        "NORMAL" : 25,
                        "TEXCOORD_0" : 26
                    },
                    "indices" : 27
                }
            ]
        }
    ],
    "textures" : [
        {
            "source" : 0
        },
        {
            "source" : 1
        }
    ],
    "images" : [
        {
            "bufferView" : 8,
            "mimeType" : "image/jpeg",
            "name" : "fridgeTexture"
        },
        {
            "bufferView" : 17,
            "mimeType" : "image/jpeg",
            "name" : "ceiling-light1024"
        }
    ],
    "accessors" : [
        {
            "bufferView" : 0,
            "componentType" : 5126,
            "count" : 36,
            "max" : [
                0.5009326338768005,
                1.6034531593322754,
                -0.03310486674308777
            ],
            "min" : [
                -1.19059157371521,
                0.7786896228790283,
                -0.7624428272247314
            ],
            "type" : "VEC3"
        },
        {
            "bufferView" : 1,
            "componentType" : 5126,
            "count" : 36,
            "type" : "VEC3"
        },
        {
            "bufferView" : 2,
            "componentType" : 5126,
            "count" : 36,
            "type" : "VEC2"
        },
        {
            "bufferView" : 3,
            "componentType" : 5123,
            "count" : 54,
            "type" : "SCALAR"
        },
        {
            "bufferView" : 4,
            "componentType" : 5126,
            "count" : 2059,
            "max" : [
                0.5490833520889282,
                2.3469889163970947,
                0.013467122800648212
            ],
            "min" : [
                -1.2427918910980225,
                0.0009549963288009167,
                -0.9047757983207703
            ],
            "type" : "VEC3"
        },
        {
            "bufferView" : 5,
            "componentType" : 5126,
            "count" : 2059,
            "type" : "VEC3"
        },
        {
            "bufferView" : 6,
            "componentType" : 5126,
            "count" : 2059,
            "type" : "VEC2"
        },
        {
            "bufferView" : 7,
            "componentType" : 5123,
            "count" : 3096,
            "type" : "SCALAR"
        },
        {
            "bufferView" : 9,
            "componentType" : 5126,
            "count" : 64,
            "max" : [
                0.3005859851837158,
                2.1127588748931885,
                -0.22225694358348846
            ],
            "min" : [
                -0.9915859699249268,
                2.0689890384674072,
                -0.5195841789245605
            ],
            "type" : "VEC3"
        },
        {
            "bufferView" : 10,
            "componentType" : 5126,
            "count" : 64,
            "type" : "VEC3"
        },
        {
            "bufferView" : 11,
            "componentType" : 5126,
            "count" : 64,
            "type" : "VEC2"
        },
        {
            "bufferView" : 12,
            "componentType" : 5123,
            "count" : 108,
            "type" : "SCALAR"
        },
        {
            "bufferView" : 13,
            "componentType" : 5126,
            "count" : 40,
            "max" : [
                0.3118762969970703,
                2.1147429943084717,
                -0.2168188989162445
            ],
            "min" : [
                -1.0028762817382812,
                2.0639655590057373,
                -0.526436984539032
            ],
            "type" : "VEC3"
        },
        {
            "bufferView" : 14,
            "componentType" : 5126,
            "count" : 40,
            "type" : "VEC3"
        },
        {
            "bufferView" : 15,
            "componentType" : 5126,
            "count" : 40,
            "type" : "VEC2"
        },
        {
            "bufferView" : 16,
            "componentType" : 5123,
            "count" : 60,
            "type" : "SCALAR"
        },
        {
            "bufferView" : 18,
            "componentType" : 5126,
            "count" : 162,
            "max" : [
                0.9012089371681213,
                0.8992712497711182,
                0.02145957201719284
            ],
            "min" : [
                0.005359472241252661,
                -0.884602427482605,
                -0.005668649449944496
            ],
            "type" : "VEC3"
        },
        {
            "bufferView" : 19,
            "componentType" : 5126,
            "count" : 162,
            "type" : "VEC3"
        },
        {
            "bufferView" : 20,
            "componentType" : 5126,
            "count" : 162,
            "type" : "VEC2"
        },
        {
            "bufferView" : 21,
            "componentType" : 5123,
            "count" : 228,
            "type" : "SCALAR"
        },
        {
            "bufferView" : 22,
            "componentType" : 5126,
            "count" : 164,
            "max" : [
                -0.007226467132568359,
                0.9006366729736328,
                0.02168385684490204
            ],
            "min" : [
                -0.8940924406051636,
                -0.8836297988891602,
                -0.0054443636909127235
            ],
            "type" : "VEC3"
        },
        {
            "bufferView" : 23,
            "componentType" : 5126,
            "count" : 164,
            "type" : "VEC3"
        },
        {
            "bufferView" : 24,
            "componentType" : 5126,
            "count" : 164,
            "type" : "VEC2"
        },
        {
            "bufferView" : 25,
            "componentType" : 5123,
            "count" : 234,
            "type" : "SCALAR"
        },
        {
            "bufferView" : 26,
            "componentType" : 5126,
            "count" : 12,
            "max" : [
                0.8457620739936829,
                0.009555339813232422,
                0.3646688759326935
            ],
            "min" : [
                -0.8457621335983276,
                -0.009555220603942871,
                -0.3646688461303711
            ],
            "type" : "VEC3"
        },
        {
            "bufferView" : 27,
            "componentType" : 5126,
            "count" : 12,
            "type" : "VEC3"
        },
        {
            "bufferView" : 28,
            "componentType" : 5126,
            "count" : 12,
            "type" : "VEC2"
        },
        {
            "bufferView" : 29,
            "componentType" : 5123,
            "count" : 18,
            "type" : "SCALAR"
        }
    ],
    "bufferViews" : [
        {
            "buffer" : 0,
            "byteLength" : 432,
            "byteOffset" : 0
        },
        {
            "buffer" : 0,
            "byteLength" : 432,
            "byteOffset" : 432
        },
        {
            "buffer" : 0,
            "byteLength" : 288,
            "byteOffset" : 864
        },
        {
            "buffer" : 0,
            "byteLength" : 108,
            "byteOffset" : 1152
        },
        {
            "buffer" : 0,
            "byteLength" : 24708,
            "byteOffset" : 1260
        },
        {
            "buffer" : 0,
            "byteLength" : 24708,
            "byteOffset" : 25968
        },
        {
            "buffer" : 0,
            "byteLength" : 16472,
            "byteOffset" : 50676
        },
        {
            "buffer" : 0,
            "byteLength" : 6192,
            "byteOffset" : 67148
        },
        {
            "buffer" : 0,
            "byteLength" : 30993,
            "byteOffset" : 73340
        },
        {
            "buffer" : 0,
            "byteLength" : 768,
            "byteOffset" : 104336
        },
        {
            "buffer" : 0,
            "byteLength" : 768,
            "byteOffset" : 105104
        },
        {
            "buffer" : 0,
            "byteLength" : 512,
            "byteOffset" : 105872
        },
        {
            "buffer" : 0,
            "byteLength" : 216,
            "byteOffset" : 106384
        },
        {
            "buffer" : 0,
            "byteLength" : 480,
            "byteOffset" : 106600
        },
        {
            "buffer" : 0,
            "byteLength" : 480,
            "byteOffset" : 107080
        },
        {
            "buffer" : 0,
            "byteLength" : 320,
            "byteOffset" : 107560
        },
        {
            "buffer" : 0,
            "byteLength" : 120,
            "byteOffset" : 107880
        },
        {
            "buffer" : 0,
            "byteLength" : 421179,
            "byteOffset" : 108000
        },
        {
            "buffer" : 0,
            "byteLength" : 1944,
            "byteOffset" : 529180
        },
        {
            "buffer" : 0,
            "byteLength" : 1944,
            "byteOffset" : 531124
        },
        {
            "buffer" : 0,
            "byteLength" : 1296,
            "byteOffset" : 533068
        },
        {
            "buffer" : 0,
            "byteLength" : 456,
            "byteOffset" : 534364
        },
        {
            "buffer" : 0,
            "byteLength" : 1968,
            "byteOffset" : 534820
        },
        {
            "buffer" : 0,
            "byteLength" : 1968,
            "byteOffset" : 536788
        },
        {
            "buffer" : 0,
            "byteLength" : 1312,
            "byteOffset" : 538756
        },
        {
            "buffer" : 0,
            "byteLength" : 468,
            "byteOffset" : 540068
        },
        {
            "buffer" : 0,
            "byteLength" : 144,
            "byteOffset" : 540536
        },
        {
            "buffer" : 0,
            "byteLength" : 144,
            "byteOffset" : 540680
        },
        {
            "buffer" : 0,
            "byteLength" : 96,
            "byteOffset" : 540824
        },
        {
            "buffer" : 0,
            "byteLength" : 36,
            "byteOffset" : 540920
        }
    ],
    "buffers" : [
        {
            "byteLength" : 540956,
            "uri" : "data:application/octet-stream;base64,"
        }
    ]
}
