{
    "asset" : {
        "generator" : "Khronos glTF Blender I/O v1.3.48",
        "version" : "2.0"
    },
    "scene" : 0,
    "scenes" : [
        {
            "name" : "Scene",
            "nodes" : [
                0,
                1,
                2,
                3
            ]
        }
    ],
    "nodes" : [
        {
            "mesh" : 0,
            "name" : "Hot_hold",
            "rotation" : [
                0,
                0.7071068286895752,
                0,
                0.7071068286895752
            ],
            "translation" : [
                -2.3639228343963623,
                1.1458590030670166,
                4.487758159637451
            ]
        },
        {
            "mesh" : 1,
            "name" : "Hot_hold_glass",
            "translation" : [
                -2.3639228343963623,
                1.1458590030670166,
                4.487758159637451
            ]
        },
        {
            "mesh" : 2,
            "name" : "Hot_hold_glassDoor",
            "translation" : [
                -1.9541136026382446,
                1.734779953956604,
                4.8721795082092285
            ]
        },
        {
            "mesh" : 3,
            "name" : "Hot_hold_tray",
            "translation" : [
                -2.3639228343963623,
                1.1458590030670166,
                4.487758159637451
            ]
        }
    ],
    "materials" : [
        {
            "doubleSided" : true,
            "emissiveFactor" : [
                0,
                0,
                0
            ],
            "name" : "hot-hold",
            "pbrMetallicRoughness" : {
                "baseColorTexture" : {
                    "index" : 0,
                    "texCoord" : 0
                },
                "metallicFactor" : 1,
                "roughnessFactor" : 0.5
            }
        },
        {
            "alphaMode" : "BLEND",
            "doubleSided" : true,
            "emissiveFactor" : [
                0,
                0,
                0
            ],
            "name" : "clear-glass",
            "pbrMetallicRoughness" : {
                "baseColorFactor" : [
                    0.800000011920929,
                    0.800000011920929,
                    0.800000011920929,
                    0.6000000238418579
                ],
                "metallicFactor" : 0,
                "roughnessFactor" : 0
            }
        },
        {
            "doubleSided" : true,
            "emissiveFactor" : [
                0,
                0,
                0
            ],
            "name" : "metal",
            "pbrMetallicRoughness" : {
                "baseColorTexture" : {
                    "index" : 1,
                    "texCoord" : 0
                },
                "metallicFactor" : 1,
                "roughnessFactor" : 0.19999998807907104
            }
        }
    ],
    "meshes" : [
        {
            "name" : "Cube.032",
            "primitives" : [
                {
                    "attributes" : {
                        "POSITION" : 0,
                        "NORMAL" : 1,
                        "TEXCOORD_0" : 2
                    },
                    "indices" : 3,
                    "material" : 0
                }
            ]
        },
        {
            "name" : "Cube.030",
            "primitives" : [
                {
                    "attributes" : {
                        "POSITION" : 4,
                        "NORMAL" : 5,
                        "TEXCOORD_0" : 6
                    },
                    "indices" : 7,
                    "material" : 1
                }
            ]
        },
        {
            "name" : "Cube.093",
            "primitives" : [
                {
                    "attributes" : {
                        "POSITION" : 8,
                        "NORMAL" : 9,
                        "TEXCOORD_0" : 10
                    },
                    "indices" : 7,
                    "material" : 1
                },
                {
                    "attributes" : {
                        "POSITION" : 11,
                        "NORMAL" : 12,
                        "TEXCOORD_0" : 13
                    },
                    "indices" : 14,
                    "material" : 0
                }
            ]
        },
        {
            "name" : "Cylinder.005",
            "primitives" : [
                {
                    "attributes" : {
                        "POSITION" : 15,
                        "NORMAL" : 16,
                        "TEXCOORD_0" : 17
                    },
                    "indices" : 18,
                    "material" : 2
                }
            ]
        }
    ],
    "textures" : [
        {
            "source" : 0
        },
        {
            "source" : 1
        }
    ],
    "images" : [
        {
            "bufferView" : 4,
            "mimeType" : "image/jpeg",
            "name" : "hot-hold"
        },
        {
            "bufferView" : 20,
            "mimeType" : "image/jpeg",
            "name" : "aluminum"
        }
    ],
    "accessors" : [
        {
            "bufferView" : 0,
            "componentType" : 5126,
            "count" : 755,
            "max" : [
                0.42562296986579895,
                1.3349699974060059,
                0.4260326623916626
            ],
            "min" : [
                -0.42549076676368713,
                0.002459406852722168,
                -0.4252314269542694
            ],
            "type" : "VEC3"
        },
        {
            "bufferView" : 1,
            "componentType" : 5126,
            "count" : 755,
            "type" : "VEC3"
        },
        {
            "bufferView" : 2,
            "componentType" : 5126,
            "count" : 755,
            "type" : "VEC2"
        },
        {
            "bufferView" : 3,
            "componentType" : 5123,
            "count" : 1158,
            "type" : "SCALAR"
        },
        {
            "bufferView" : 5,
            "componentType" : 5126,
            "count" : 24,
            "max" : [
                0.38444486260414124,
                1.0531574487686157,
                0.4098975658416748
            ],
            "min" : [
                -0.4098762571811676,
                0.12468454241752625,
                -0.4097163677215576
            ],
            "type" : "VEC3"
        },
        {
            "bufferView" : 6,
            "componentType" : 5126,
            "count" : 24,
            "type" : "VEC3"
        },
        {
            "bufferView" : 7,
            "componentType" : 5126,
            "count" : 24,
            "type" : "VEC2"
        },
        {
            "bufferView" : 8,
            "componentType" : 5123,
            "count" : 36,
            "type" : "SCALAR"
        },
        {
            "bufferView" : 9,
            "componentType" : 5126,
            "count" : 24,
            "max" : [
                0,
                0.46423637866973877,
                -1.4901161193847656e-07
            ],
            "min" : [
                -0.012437313795089722,
                -0.46423640847206116,
                -0.7687755823135376
            ],
            "type" : "VEC3"
        },
        {
            "bufferView" : 10,
            "componentType" : 5126,
            "count" : 24,
            "type" : "VEC3"
        },
        {
            "bufferView" : 11,
            "componentType" : 5126,
            "count" : 24,
            "type" : "VEC2"
        },
        {
            "bufferView" : 12,
            "componentType" : 5126,
            "count" : 200,
            "max" : [
                0.019362114369869232,
                0.04517439752817154,
                -0.6938967704772949
            ],
            "min" : [
                -0.00017403066158294678,
                -0.10202401876449585,
                -0.7127990126609802
            ],
            "type" : "VEC3"
        },
        {
            "bufferView" : 13,
            "componentType" : 5126,
            "count" : 200,
            "type" : "VEC3"
        },
        {
            "bufferView" : 14,
            "componentType" : 5126,
            "count" : 200,
            "type" : "VEC2"
        },
        {
            "bufferView" : 15,
            "componentType" : 5123,
            "count" : 300,
            "type" : "SCALAR"
        },
        {
            "bufferView" : 16,
            "componentType" : 5126,
            "count" : 424,
            "max" : [
                0.37290623784065247,
                0.7578608989715576,
                0.37290626764297485
            ],
            "min" : [
                -0.3729068338871002,
                0.13635149598121643,
                -0.3729075491428375
            ],
            "type" : "VEC3"
        },
        {
            "bufferView" : 17,
            "componentType" : 5126,
            "count" : 424,
            "type" : "VEC3"
        },
        {
            "bufferView" : 18,
            "componentType" : 5126,
            "count" : 424,
            "type" : "VEC2"
        },
        {
            "bufferView" : 19,
            "componentType" : 5123,
            "count" : 1218,
            "type" : "SCALAR"
        }
    ],
    "bufferViews" : [
        {
            "buffer" : 0,
            "byteLength" : 9060,
            "byteOffset" : 0
        },
        {
            "buffer" : 0,
            "byteLength" : 9060,
            "byteOffset" : 9060
        },
        {
            "buffer" : 0,
            "byteLength" : 6040,
            "byteOffset" : 18120
        },
        {
            "buffer" : 0,
            "byteLength" : 2316,
            "byteOffset" : 24160
        },
        {
            "buffer" : 0,
            "byteLength" : 76672,
            "byteOffset" : 26476
        },
        {
            "buffer" : 0,
            "byteLength" : 288,
            "byteOffset" : 103148
        },
        {
            "buffer" : 0,
            "byteLength" : 288,
            "byteOffset" : 103436
        },
        {
            "buffer" : 0,
            "byteLength" : 192,
            "byteOffset" : 103724
        },
        {
            "buffer" : 0,
            "byteLength" : 72,
            "byteOffset" : 103916
        },
        {
            "buffer" : 0,
            "byteLength" : 288,
            "byteOffset" : 103988
        },
        {
            "buffer" : 0,
            "byteLength" : 288,
            "byteOffset" : 104276
        },
        {
            "buffer" : 0,
            "byteLength" : 192,
            "byteOffset" : 104564
        },
        {
            "buffer" : 0,
            "byteLength" : 2400,
            "byteOffset" : 104756
        },
        {
            "buffer" : 0,
            "byteLength" : 2400,
            "byteOffset" : 107156
        },
        {
            "buffer" : 0,
            "byteLength" : 1600,
            "byteOffset" : 109556
        },
        {
            "buffer" : 0,
            "byteLength" : 600,
            "byteOffset" : 111156
        },
        {
            "buffer" : 0,
            "byteLength" : 5088,
            "byteOffset" : 111756
        },
        {
            "buffer" : 0,
            "byteLength" : 5088,
            "byteOffset" : 116844
        },
        {
            "buffer" : 0,
            "byteLength" : 3392,
            "byteOffset" : 121932
        },
        {
            "buffer" : 0,
            "byteLength" : 2436,
            "byteOffset" : 125324
        },
        {
            "buffer" : 0,
            "byteLength" : 33650,
            "byteOffset" : 127760
        }
    ],
    "buffers" : [
        {
            "byteLength" : 161412,
            "uri" : "data:application/octet-stream;base64,"
        }
    ]
}
