{
    "asset" : {
        "generator" : "Khronos glTF Blender I/O v1.3.48",
        "version" : "2.0"
    },
    "scene" : 0,
    "scenes" : [
        {
            "name" : "Scene",
            "nodes" : [
                0,
                1,
                2,
                3,
                4
            ]
        }
    ],
    "nodes" : [
        {
            "mesh" : 0,
            "name" : "Knife_utility",
            "translation" : [
                -0.3265334665775299,
                0,
                0.8429675698280334
            ]
        },
        {
            "mesh" : 1,
            "name" : "Spatula",
            "translation" : [
                -0.5124571323394775,
                0,
                0.8281803131103516
            ]
        },
        {
            "mesh" : 2,
            "name" : "Tongs",
            "translation" : [
                -0.767081081867218,
                0.06599055230617523,
                0.8602277040481567
            ]
        },
        {
            "mesh" : 3,
            "name" : "Frying_pan",
            "translation" : [
                -1.20591139793396,
                0.007413286715745926,
                0.6219479441642761
            ]
        },
        {
            "mesh" : 4,
            "name" : "Soup_pot",
            "translation" : [
                -1.1825251579284668,
                0,
                -0.04049372673034668
            ]
        }
    ],
    "materials" : [
        {
            "doubleSided" : true,
            "emissiveFactor" : [
                0,
                0,
                0
            ],
            "name" : "wood-cuttingboard",
            "pbrMetallicRoughness" : {
                "baseColorTexture" : {
                    "index" : 0,
                    "texCoord" : 0
                },
                "metallicFactor" : 0,
                "roughnessFactor" : 1
            }
        },
        {
            "doubleSided" : true,
            "emissiveFactor" : [
                0,
                0,
                0
            ],
            "name" : "chrome",
            "pbrMetallicRoughness" : {
                "baseColorFactor" : [
                    0.800000011920929,
                    0.800000011920929,
                    0.800000011920929,
                    1
                ],
                "metallicFactor" : 1,
                "roughnessFactor" : 0.20428016781806946
            }
        },
        {
            "doubleSided" : true,
            "emissiveFactor" : [
                0,
                0,
                0
            ],
            "name" : "metal",
            "pbrMetallicRoughness" : {
                "baseColorTexture" : {
                    "index" : 1,
                    "texCoord" : 0
                },
                "metallicFactor" : 1,
                "roughnessFactor" : 0.19999998807907104
            }
        },
        {
            "doubleSided" : true,
            "emissiveFactor" : [
                0,
                0,
                0
            ],
            "name" : "chrome.001",
            "pbrMetallicRoughness" : {
                "baseColorFactor" : [
                    0.5271152257919312,
                    0.5271152257919312,
                    0.5271152257919312,
                    1
                ],
                "metallicFactor" : 1,
                "roughnessFactor" : 0.1964980959892273
            }
        }
    ],
    "meshes" : [
        {
            "name" : "Cube.004",
            "primitives" : [
                {
                    "attributes" : {
                        "POSITION" : 0,
                        "NORMAL" : 1,
                        "TEXCOORD_0" : 2
                    },
                    "indices" : 3,
                    "material" : 0
                },
                {
                    "attributes" : {
                        "POSITION" : 4,
                        "NORMAL" : 5,
                        "TEXCOORD_0" : 6
                    },
                    "indices" : 7,
                    "material" : 1
                }
            ]
        },
        {
            "name" : "Cube.010",
            "primitives" : [
                {
                    "attributes" : {
                        "POSITION" : 8,
                        "NORMAL" : 9,
                        "TEXCOORD_0" : 10
                    },
                    "indices" : 11,
                    "material" : 0
                },
                {
                    "attributes" : {
                        "POSITION" : 12,
                        "NORMAL" : 13,
                        "TEXCOORD_0" : 14
                    },
                    "indices" : 15,
                    "material" : 2
                }
            ]
        },
        {
            "name" : "Cube",
            "primitives" : [
                {
                    "attributes" : {
                        "POSITION" : 16,
                        "NORMAL" : 17,
                        "TEXCOORD_0" : 18
                    },
                    "indices" : 19,
                    "material" : 1
                }
            ]
        },
        {
            "name" : "Cylinder.004",
            "primitives" : [
                {
                    "attributes" : {
                        "POSITION" : 20,
                        "NORMAL" : 21,
                        "TEXCOORD_0" : 22
                    },
                    "indices" : 23,
                    "material" : 2
                }
            ]
        },
        {
            "name" : "Sphere.002",
            "primitives" : [
                {
                    "attributes" : {
                        "POSITION" : 24,
                        "NORMAL" : 25,
                        "TEXCOORD_0" : 26
                    },
                    "indices" : 27,
                    "material" : 3
                }
            ]
        }
    ],
    "textures" : [
        {
            "source" : 0
        },
        {
            "source" : 1
        }
    ],
    "images" : [
        {
            "bufferView" : 4,
            "mimeType" : "image/png",
            "name" : "wood-door-512"
        },
        {
            "bufferView" : 17,
            "mimeType" : "image/png",
            "name" : "aluminum"
        }
    ],
    "accessors" : [
        {
            "bufferView" : 0,
            "componentType" : 5126,
            "count" : 68,
            "max" : [
                0.04348735138773918,
                0.041307345032691956,
                0.01039353758096695
            ],
            "min" : [
                -0.030825987458229065,
                -0.2724594473838806,
                -0.009876102209091187
            ],
            "type" : "VEC3"
        },
        {
            "bufferView" : 1,
            "componentType" : 5126,
            "count" : 68,
            "type" : "VEC3"
        },
        {
            "bufferView" : 2,
            "componentType" : 5126,
            "count" : 68,
            "type" : "VEC2"
        },
        {
            "bufferView" : 3,
            "componentType" : 5123,
            "count" : 156,
            "type" : "SCALAR"
        },
        {
            "bufferView" : 5,
            "componentType" : 5126,
            "count" : 56,
            "max" : [
                0.051124539226293564,
                0.4436799883842468,
                0.003255218267440796
            ],
            "min" : [
                -0.027049852535128593,
                0.015702173113822937,
                -0.0027377307415008545
            ],
            "type" : "VEC3"
        },
        {
            "bufferView" : 6,
            "componentType" : 5126,
            "count" : 56,
            "type" : "VEC3"
        },
        {
            "bufferView" : 7,
            "componentType" : 5126,
            "count" : 56,
            "type" : "VEC2"
        },
        {
            "bufferView" : 8,
            "componentType" : 5123,
            "count" : 84,
            "type" : "SCALAR"
        },
        {
            "bufferView" : 9,
            "componentType" : 5126,
            "count" : 68,
            "max" : [
                0.027571842074394226,
                0.011355443857610226,
                0.13305601477622986
            ],
            "min" : [
                -0.027571838349103928,
                -0.011355443857610226,
                -0.14142470061779022
            ],
            "type" : "VEC3"
        },
        {
            "bufferView" : 10,
            "componentType" : 5126,
            "count" : 68,
            "type" : "VEC3"
        },
        {
            "bufferView" : 11,
            "componentType" : 5126,
            "count" : 68,
            "type" : "VEC2"
        },
        {
            "bufferView" : 12,
            "componentType" : 5123,
            "count" : 102,
            "type" : "SCALAR"
        },
        {
            "bufferView" : 13,
            "componentType" : 5126,
            "count" : 72,
            "max" : [
                0.06506101787090302,
                0.011153250932693481,
                -0.1373886913061142
            ],
            "min" : [
                -0.06506101787090302,
                -0.0175381600856781,
                -0.5018051266670227
            ],
            "type" : "VEC3"
        },
        {
            "bufferView" : 14,
            "componentType" : 5126,
            "count" : 72,
            "type" : "VEC3"
        },
        {
            "bufferView" : 15,
            "componentType" : 5126,
            "count" : 72,
            "type" : "VEC2"
        },
        {
            "bufferView" : 16,
            "componentType" : 5123,
            "count" : 108,
            "type" : "SCALAR"
        },
        {
            "bufferView" : 18,
            "componentType" : 5126,
            "count" : 178,
            "max" : [
                0.07966052740812302,
                0.027090664952993393,
                0.008909150958061218
            ],
            "min" : [
                -0.0803970918059349,
                -0.027090664952993393,
                -0.475120484828949
            ],
            "type" : "VEC3"
        },
        {
            "bufferView" : 19,
            "componentType" : 5126,
            "count" : 178,
            "type" : "VEC3"
        },
        {
            "bufferView" : 20,
            "componentType" : 5126,
            "count" : 178,
            "type" : "VEC2"
        },
        {
            "bufferView" : 21,
            "componentType" : 5123,
            "count" : 324,
            "type" : "SCALAR"
        },
        {
            "bufferView" : 22,
            "componentType" : 5126,
            "count" : 248,
            "max" : [
                0.22659239172935486,
                0.0544382706284523,
                0.22007673978805542
            ],
            "min" : [
                -0.43087881803512573,
                -0.003089742735028267,
                -0.22007670998573303
            ],
            "type" : "VEC3"
        },
        {
            "bufferView" : 23,
            "componentType" : 5126,
            "count" : 248,
            "type" : "VEC3"
        },
        {
            "bufferView" : 24,
            "componentType" : 5126,
            "count" : 248,
            "type" : "VEC2"
        },
        {
            "bufferView" : 25,
            "componentType" : 5123,
            "count" : 498,
            "type" : "SCALAR"
        },
        {
            "bufferView" : 26,
            "componentType" : 5126,
            "count" : 1151,
            "max" : [
                0.30542731285095215,
                0.3083287477493286,
                0.27755647897720337
            ],
            "min" : [
                -0.30535435676574707,
                0.0005512237548828125,
                -0.27755624055862427
            ],
            "type" : "VEC3"
        },
        {
            "bufferView" : 27,
            "componentType" : 5126,
            "count" : 1151,
            "type" : "VEC3"
        },
        {
            "bufferView" : 28,
            "componentType" : 5126,
            "count" : 1151,
            "type" : "VEC2"
        },
        {
            "bufferView" : 29,
            "componentType" : 5123,
            "count" : 3108,
            "type" : "SCALAR"
        }
    ],
    "bufferViews" : [
        {
            "buffer" : 0,
            "byteLength" : 816,
            "byteOffset" : 0
        },
        {
            "buffer" : 0,
            "byteLength" : 816,
            "byteOffset" : 816
        },
        {
            "buffer" : 0,
            "byteLength" : 544,
            "byteOffset" : 1632
        },
        {
            "buffer" : 0,
            "byteLength" : 312,
            "byteOffset" : 2176
        },
        {
            "buffer" : 0,
            "byteLength" : 317670,
            "byteOffset" : 2488
        },
        {
            "buffer" : 0,
            "byteLength" : 672,
            "byteOffset" : 320160
        },
        {
            "buffer" : 0,
            "byteLength" : 672,
            "byteOffset" : 320832
        },
        {
            "buffer" : 0,
            "byteLength" : 448,
            "byteOffset" : 321504
        },
        {
            "buffer" : 0,
            "byteLength" : 168,
            "byteOffset" : 321952
        },
        {
            "buffer" : 0,
            "byteLength" : 816,
            "byteOffset" : 322120
        },
        {
            "buffer" : 0,
            "byteLength" : 816,
            "byteOffset" : 322936
        },
        {
            "buffer" : 0,
            "byteLength" : 544,
            "byteOffset" : 323752
        },
        {
            "buffer" : 0,
            "byteLength" : 204,
            "byteOffset" : 324296
        },
        {
            "buffer" : 0,
            "byteLength" : 864,
            "byteOffset" : 324500
        },
        {
            "buffer" : 0,
            "byteLength" : 864,
            "byteOffset" : 325364
        },
        {
            "buffer" : 0,
            "byteLength" : 576,
            "byteOffset" : 326228
        },
        {
            "buffer" : 0,
            "byteLength" : 216,
            "byteOffset" : 326804
        },
        {
            "buffer" : 0,
            "byteLength" : 366183,
            "byteOffset" : 327020
        },
        {
            "buffer" : 0,
            "byteLength" : 2136,
            "byteOffset" : 693204
        },
        {
            "buffer" : 0,
            "byteLength" : 2136,
            "byteOffset" : 695340
        },
        {
            "buffer" : 0,
            "byteLength" : 1424,
            "byteOffset" : 697476
        },
        {
            "buffer" : 0,
            "byteLength" : 648,
            "byteOffset" : 698900
        },
        {
            "buffer" : 0,
            "byteLength" : 2976,
            "byteOffset" : 699548
        },
        {
            "buffer" : 0,
            "byteLength" : 2976,
            "byteOffset" : 702524
        },
        {
            "buffer" : 0,
            "byteLength" : 1984,
            "byteOffset" : 705500
        },
        {
            "buffer" : 0,
            "byteLength" : 996,
            "byteOffset" : 707484
        },
        {
            "buffer" : 0,
            "byteLength" : 13812,
            "byteOffset" : 708480
        },
        {
            "buffer" : 0,
            "byteLength" : 13812,
            "byteOffset" : 722292
        },
        {
            "buffer" : 0,
            "byteLength" : 9208,
            "byteOffset" : 736104
        },
        {
            "buffer" : 0,
            "byteLength" : 6216,
            "byteOffset" : 745312
        }
    ],
    "buffers" : [
        {
            "byteLength" : 751528,
            "uri" : "data:application/octet-stream;base64,"
        }
    ]
}
