{
    "asset" : {
        "generator" : "Khronos glTF Blender I/O v1.3.48",
        "version" : "2.0"
    },
    "scene" : 0,
    "scenes" : [
        {
            "name" : "Scene",
            "nodes" : [
                0,
                1,
                2
            ]
        }
    ],
    "nodes" : [
        {
            "mesh" : 0,
            "name" : "Microwave_door",
            "translation" : [
                -4.713825225830078,
                1.5007641315460205,
                -3.813786268234253
            ]
        },
        {
            "mesh" : 1,
            "name" : "Microwave",
            "translation" : [
                -4.713828086853027,
                1.5015249252319336,
                -4.1746506690979
            ]
        },
        {
            "mesh" : 2,
            "name" : "Microwave_Plate",
            "translation" : [
                -4.265498638153076,
                1.2241618633270264,
                -4.166210174560547
            ]
        }
    ],
    "materials" : [
        {
            "doubleSided" : true,
            "emissiveFactor" : [
                0,
                0,
                0
            ],
            "name" : "metal",
            "pbrMetallicRoughness" : {
                "baseColorTexture" : {
                    "index" : 0,
                    "texCoord" : 0
                },
                "metallicFactor" : 1,
                "roughnessFactor" : 0.19999998807907104
            }
        },
        {
            "doubleSided" : true,
            "emissiveFactor" : [
                0,
                0,
                0
            ],
            "name" : "microwave",
            "pbrMetallicRoughness" : {
                "baseColorTexture" : {
                    "index" : 1,
                    "texCoord" : 0
                },
                "metallicFactor" : 0,
                "roughnessFactor" : 0.5
            }
        },
        {
            "alphaMode" : "BLEND",
            "doubleSided" : true,
            "emissiveFactor" : [
                0,
                0,
                0
            ],
            "name" : "clear-glass",
            "pbrMetallicRoughness" : {
                "baseColorFactor" : [
                    0.800000011920929,
                    0.800000011920929,
                    0.800000011920929,
                    0.6000000238418579
                ],
                "metallicFactor" : 0,
                "roughnessFactor" : 0
            }
        }
    ],
    "meshes" : [
        {
            "name" : "Cube.029",
            "primitives" : [
                {
                    "attributes" : {
                        "POSITION" : 0,
                        "NORMAL" : 1,
                        "TEXCOORD_0" : 2
                    },
                    "indices" : 3,
                    "material" : 0
                },
                {
                    "attributes" : {
                        "POSITION" : 4,
                        "NORMAL" : 5,
                        "TEXCOORD_0" : 6
                    },
                    "indices" : 7,
                    "material" : 1
                },
                {
                    "attributes" : {
                        "POSITION" : 8,
                        "NORMAL" : 9,
                        "TEXCOORD_0" : 10
                    },
                    "indices" : 11,
                    "material" : 2
                }
            ]
        },
        {
            "name" : "Cube.031",
            "primitives" : [
                {
                    "attributes" : {
                        "POSITION" : 12,
                        "NORMAL" : 13,
                        "TEXCOORD_0" : 14
                    },
                    "indices" : 15,
                    "material" : 1
                },
                {
                    "attributes" : {
                        "POSITION" : 16,
                        "NORMAL" : 17,
                        "TEXCOORD_0" : 18
                    },
                    "indices" : 19,
                    "material" : 0
                }
            ]
        },
        {
            "name" : "Sphere.016",
            "primitives" : [
                {
                    "attributes" : {
                        "POSITION" : 20,
                        "NORMAL" : 21,
                        "TEXCOORD_0" : 22
                    },
                    "indices" : 23,
                    "material" : 2
                }
            ]
        }
    ],
    "textures" : [
        {
            "source" : 0
        },
        {
            "source" : 1
        }
    ],
    "images" : [
        {
            "bufferView" : 4,
            "mimeType" : "image/jpeg",
            "name" : "aluminum"
        },
        {
            "bufferView" : 9,
            "mimeType" : "image/jpeg",
            "name" : "microwave"
        }
    ],
    "accessors" : [
        {
            "bufferView" : 0,
            "componentType" : 5126,
            "count" : 212,
            "max" : [
                0.9234359264373779,
                0.19981150329113007,
                0.09720304608345032
            ],
            "min" : [
                -0.0006228983402252197,
                -0.30086055397987366,
                0.004670742433518171
            ],
            "type" : "VEC3"
        },
        {
            "bufferView" : 1,
            "componentType" : 5126,
            "count" : 212,
            "type" : "VEC3"
        },
        {
            "bufferView" : 2,
            "componentType" : 5126,
            "count" : 212,
            "type" : "VEC2"
        },
        {
            "bufferView" : 3,
            "componentType" : 5123,
            "count" : 324,
            "type" : "SCALAR"
        },
        {
            "bufferView" : 5,
            "componentType" : 5126,
            "count" : 328,
            "max" : [
                0.9234359264373779,
                0.19981150329113007,
                0.064248226583004
            ],
            "min" : [
                -0.0006228983402252197,
                -0.30086055397987366,
                -0.0003292560577392578
            ],
            "type" : "VEC3"
        },
        {
            "bufferView" : 6,
            "componentType" : 5126,
            "count" : 328,
            "type" : "VEC3"
        },
        {
            "bufferView" : 7,
            "componentType" : 5126,
            "count" : 328,
            "type" : "VEC2"
        },
        {
            "bufferView" : 8,
            "componentType" : 5123,
            "count" : 540,
            "type" : "SCALAR"
        },
        {
            "bufferView" : 10,
            "componentType" : 5126,
            "count" : 8,
            "max" : [
                0.8133453130722046,
                0.1139674261212349,
                0.049213260412216187
            ],
            "min" : [
                0.08522118628025055,
                -0.2150164693593979,
                0.015355020761489868
            ],
            "type" : "VEC3"
        },
        {
            "bufferView" : 11,
            "componentType" : 5126,
            "count" : 8,
            "type" : "VEC3"
        },
        {
            "bufferView" : 12,
            "componentType" : 5126,
            "count" : 8,
            "type" : "VEC2"
        },
        {
            "bufferView" : 13,
            "componentType" : 5123,
            "count" : 12,
            "type" : "SCALAR"
        },
        {
            "bufferView" : 14,
            "componentType" : 5126,
            "count" : 500,
            "max" : [
                0.9234359264373779,
                0.3237402141094208,
                0.41955602169036865
            ],
            "min" : [
                -0.0006228983402252197,
                -0.30086058378219604,
                -0.39722126722335815
            ],
            "type" : "VEC3"
        },
        {
            "bufferView" : 15,
            "componentType" : 5126,
            "count" : 500,
            "type" : "VEC3"
        },
        {
            "bufferView" : 16,
            "componentType" : 5126,
            "count" : 500,
            "type" : "VEC2"
        },
        {
            "bufferView" : 17,
            "componentType" : 5123,
            "count" : 966,
            "type" : "SCALAR"
        },
        {
            "bufferView" : 18,
            "componentType" : 5126,
            "count" : 300,
            "max" : [
                0.9234359264373779,
                0.3237402141094208,
                0.42455601692199707
            ],
            "min" : [
                -0.0006228983402252197,
                0.19981150329113007,
                0.417059987783432
            ],
            "type" : "VEC3"
        },
        {
            "bufferView" : 19,
            "componentType" : 5126,
            "count" : 300,
            "type" : "VEC3"
        },
        {
            "bufferView" : 20,
            "componentType" : 5126,
            "count" : 300,
            "type" : "VEC2"
        },
        {
            "bufferView" : 21,
            "componentType" : 5123,
            "count" : 528,
            "type" : "SCALAR"
        },
        {
            "bufferView" : 22,
            "componentType" : 5126,
            "count" : 208,
            "max" : [
                0.30446138978004456,
                0.02690867893397808,
                0.3105977177619934
            ],
            "min" : [
                -0.30561795830726624,
                0.015721317380666733,
                -0.31517094373703003
            ],
            "type" : "VEC3"
        },
        {
            "bufferView" : 23,
            "componentType" : 5126,
            "count" : 208,
            "type" : "VEC3"
        },
        {
            "bufferView" : 24,
            "componentType" : 5126,
            "count" : 208,
            "type" : "VEC2"
        },
        {
            "bufferView" : 25,
            "componentType" : 5123,
            "count" : 672,
            "type" : "SCALAR"
        }
    ],
    "bufferViews" : [
        {
            "buffer" : 0,
            "byteLength" : 2544,
            "byteOffset" : 0
        },
        {
            "buffer" : 0,
            "byteLength" : 2544,
            "byteOffset" : 2544
        },
        {
            "buffer" : 0,
            "byteLength" : 1696,
            "byteOffset" : 5088
        },
        {
            "buffer" : 0,
            "byteLength" : 648,
            "byteOffset" : 6784
        },
        {
            "buffer" : 0,
            "byteLength" : 33650,
            "byteOffset" : 7432
        },
        {
            "buffer" : 0,
            "byteLength" : 3936,
            "byteOffset" : 41084
        },
        {
            "buffer" : 0,
            "byteLength" : 3936,
            "byteOffset" : 45020
        },
        {
            "buffer" : 0,
            "byteLength" : 2624,
            "byteOffset" : 48956
        },
        {
            "buffer" : 0,
            "byteLength" : 1080,
            "byteOffset" : 51580
        },
        {
            "buffer" : 0,
            "byteLength" : 46889,
            "byteOffset" : 52660
        },
        {
            "buffer" : 0,
            "byteLength" : 96,
            "byteOffset" : 99552
        },
        {
            "buffer" : 0,
            "byteLength" : 96,
            "byteOffset" : 99648
        },
        {
            "buffer" : 0,
            "byteLength" : 64,
            "byteOffset" : 99744
        },
        {
            "buffer" : 0,
            "byteLength" : 24,
            "byteOffset" : 99808
        },
        {
            "buffer" : 0,
            "byteLength" : 6000,
            "byteOffset" : 99832
        },
        {
            "buffer" : 0,
            "byteLength" : 6000,
            "byteOffset" : 105832
        },
        {
            "buffer" : 0,
            "byteLength" : 4000,
            "byteOffset" : 111832
        },
        {
            "buffer" : 0,
            "byteLength" : 1932,
            "byteOffset" : 115832
        },
        {
            "buffer" : 0,
            "byteLength" : 3600,
            "byteOffset" : 117764
        },
        {
            "buffer" : 0,
            "byteLength" : 3600,
            "byteOffset" : 121364
        },
        {
            "buffer" : 0,
            "byteLength" : 2400,
            "byteOffset" : 124964
        },
        {
            "buffer" : 0,
            "byteLength" : 1056,
            "byteOffset" : 127364
        },
        {
            "buffer" : 0,
            "byteLength" : 2496,
            "byteOffset" : 128420
        },
        {
            "buffer" : 0,
            "byteLength" : 2496,
            "byteOffset" : 130916
        },
        {
            "buffer" : 0,
            "byteLength" : 1664,
            "byteOffset" : 133412
        },
        {
            "buffer" : 0,
            "byteLength" : 1344,
            "byteOffset" : 135076
        }
    ],
    "buffers" : [
        {
            "byteLength" : 136420,
            "uri" : "data:application/octet-stream;base64,"
        }
    ]
}
