{
    "asset" : {
        "generator" : "Khronos glTF Blender I/O v1.3.48",
        "version" : "2.0"
    },
    "scene" : 0,
    "scenes" : [
        {
            "name" : "Scene",
            "nodes" : [
                0,
                1,
                2,
                3,
                4,
                5,
                6,
                7,
                8,
                9,
                10
            ]
        }
    ],
    "nodes" : [
        {
            "mesh" : 0,
            "name" : "Storage_shelves",
            "rotation" : [
                0,
                1,
                0,
                -1.6292068494294654e-07
            ],
            "translation" : [
                -12.269193649291992,
                0.0025680363178253174,
                8.309267044067383
            ]
        },
        {
            "mesh" : 1,
            "name" : "Storage_cabinet",
            "rotation" : [
                0,
                1,
                0,
                -1.6292068494294654e-07
            ],
            "translation" : [
                -6.07452392578125,
                0.0006818175315856934,
                8.282909393310547
            ]
        },
        {
            "mesh" : 2,
            "name" : "Storage_cabinet_doorL",
            "rotation" : [
                0,
                1,
                0,
                -1.6292068494294654e-07
            ],
            "translation" : [
                -5.106651306152344,
                1.20241379737854,
                7.9195404052734375
            ]
        },
        {
            "mesh" : 3,
            "name" : "Storage_cabinet_doorR",
            "rotation" : [
                0,
                1,
                0,
                -1.6292068494294654e-07
            ],
            "translation" : [
                -7.041376113891602,
                1.1987969875335693,
                7.922155380249023
            ]
        },
        {
            "mesh" : 4,
            "name" : "Container_rect",
            "translation" : [
                3.4441158771514893,
                2.0379271507263184,
                -4.4537200927734375
            ]
        },
        {
            "mesh" : 5,
            "name" : "Container_rect_lid",
            "translation" : [
                3.4441158771514893,
                2.0383033752441406,
                -4.453980445861816
            ]
        },
        {
            "mesh" : 6,
            "name" : "Container_small",
            "translation" : [
                4.210375785827637,
                2.0364181995391846,
                -4.446041584014893
            ]
        },
        {
            "mesh" : 7,
            "name" : "Container_small_lid",
            "translation" : [
                4.210375785827637,
                2.0364181995391846,
                -4.446041584014893
            ]
        },
        {
            "mesh" : 8,
            "name" : "Shelf",
            "translation" : [
                3.9253859519958496,
                1.9244810342788696,
                -4.791574001312256
            ]
        },
        {
            "mesh" : 9,
            "name" : "Container_square",
            "translation" : [
                4.664767742156982,
                2.0364181995391846,
                -4.446041584014893
            ]
        },
        {
            "mesh" : 10,
            "name" : "Container_square_lid",
            "translation" : [
                4.664767742156982,
                2.0364181995391846,
                -4.446041584014893
            ]
        }
    ],
    "materials" : [
        {
            "doubleSided" : true,
            "emissiveFactor" : [
                0,
                0,
                0
            ],
            "name" : "white",
            "pbrMetallicRoughness" : {
                "baseColorFactor" : [
                    0.800000011920929,
                    0.800000011920929,
                    0.800000011920929,
                    1
                ],
                "metallicFactor" : 0,
                "roughnessFactor" : 0.5
            }
        },
        {
            "doubleSided" : true,
            "emissiveFactor" : [
                0,
                0,
                0
            ],
            "name" : "storage-container",
            "pbrMetallicRoughness" : {
                "baseColorFactor" : [
                    0.300543874502182,
                    0.30054375529289246,
                    0.3005438446998596,
                    1
                ],
                "metallicFactor" : 0,
                "roughnessFactor" : 0.8035019636154175
            }
        },
        {
            "doubleSided" : true,
            "emissiveFactor" : [
                0,
                0,
                0
            ],
            "name" : "metal",
            "pbrMetallicRoughness" : {
                "baseColorTexture" : {
                    "index" : 0,
                    "texCoord" : 0
                },
                "metallicFactor" : 1,
                "roughnessFactor" : 0.19999998807907104
            }
        }
    ],
    "meshes" : [
        {
            "name" : "Cube.005",
            "primitives" : [
                {
                    "attributes" : {
                        "POSITION" : 0,
                        "NORMAL" : 1
                    },
                    "indices" : 2,
                    "material" : 0
                }
            ]
        },
        {
            "name" : "Cube.037",
            "primitives" : [
                {
                    "attributes" : {
                        "POSITION" : 3,
                        "NORMAL" : 4
                    },
                    "indices" : 5,
                    "material" : 1
                }
            ]
        },
        {
            "name" : "Cube.035",
            "primitives" : [
                {
                    "attributes" : {
                        "POSITION" : 6,
                        "NORMAL" : 7
                    },
                    "indices" : 8,
                    "material" : 1
                }
            ]
        },
        {
            "name" : "Cube.034",
            "primitives" : [
                {
                    "attributes" : {
                        "POSITION" : 9,
                        "NORMAL" : 10
                    },
                    "indices" : 11,
                    "material" : 1
                }
            ]
        },
        {
            "name" : "Cube.023",
            "primitives" : [
                {
                    "attributes" : {
                        "POSITION" : 12,
                        "NORMAL" : 13,
                        "TEXCOORD_0" : 14
                    },
                    "indices" : 15,
                    "material" : 2
                }
            ]
        },
        {
            "name" : "Cube.022",
            "primitives" : [
                {
                    "attributes" : {
                        "POSITION" : 16,
                        "NORMAL" : 17,
                        "TEXCOORD_0" : 18
                    },
                    "indices" : 19,
                    "material" : 2
                }
            ]
        },
        {
            "name" : "Cube.021",
            "primitives" : [
                {
                    "attributes" : {
                        "POSITION" : 20,
                        "NORMAL" : 21,
                        "TEXCOORD_0" : 22
                    },
                    "indices" : 23,
                    "material" : 2
                }
            ]
        },
        {
            "name" : "Cube.016",
            "primitives" : [
                {
                    "attributes" : {
                        "POSITION" : 24,
                        "NORMAL" : 25,
                        "TEXCOORD_0" : 26
                    },
                    "indices" : 27,
                    "material" : 2
                }
            ]
        },
        {
            "name" : "Cube.011",
            "primitives" : [
                {
                    "attributes" : {
                        "POSITION" : 28,
                        "NORMAL" : 29,
                        "TEXCOORD_0" : 30
                    },
                    "indices" : 31,
                    "material" : 0
                }
            ]
        },
        {
            "name" : "Cube.091",
            "primitives" : [
                {
                    "attributes" : {
                        "POSITION" : 32,
                        "NORMAL" : 33,
                        "TEXCOORD_0" : 34
                    },
                    "indices" : 35,
                    "material" : 2
                }
            ]
        },
        {
            "name" : "Cube.092",
            "primitives" : [
                {
                    "attributes" : {
                        "POSITION" : 36,
                        "NORMAL" : 37,
                        "TEXCOORD_0" : 38
                    },
                    "indices" : 39,
                    "material" : 2
                }
            ]
        }
    ],
    "textures" : [
        {
            "source" : 0
        }
    ],
    "images" : [
        {
            "bufferView" : 16,
            "mimeType" : "image/jpeg",
            "name" : "aluminum"
        }
    ],
    "accessors" : [
        {
            "bufferView" : 0,
            "componentType" : 5126,
            "count" : 4092,
            "max" : [
                1.412543535232544,
                2.2320194244384766,
                0.3566454350948334
            ],
            "min" : [
                -1.418225646018982,
                0.0004125051200389862,
                -0.37634173035621643
            ],
            "type" : "VEC3"
        },
        {
            "bufferView" : 1,
            "componentType" : 5126,
            "count" : 4092,
            "type" : "VEC3"
        },
        {
            "bufferView" : 2,
            "componentType" : 5123,
            "count" : 6168,
            "type" : "SCALAR"
        },
        {
            "bufferView" : 3,
            "componentType" : 5126,
            "count" : 68,
            "max" : [
                1.0090632438659668,
                2.2651147842407227,
                0.41145288944244385
            ],
            "min" : [
                -1.0120353698730469,
                0.1356406807899475,
                -0.42611992359161377
            ],
            "type" : "VEC3"
        },
        {
            "bufferView" : 4,
            "componentType" : 5126,
            "count" : 68,
            "type" : "VEC3"
        },
        {
            "bufferView" : 5,
            "componentType" : 5123,
            "count" : 120,
            "type" : "SCALAR"
        },
        {
            "bufferView" : 6,
            "componentType" : 5126,
            "count" : 448,
            "max" : [
                0.966064453125,
                1.0636554956436157,
                0.13463068008422852
            ],
            "min" : [
                -0.047577857971191406,
                -1.0658186674118042,
                -0.014225631952285767
            ],
            "type" : "VEC3"
        },
        {
            "bufferView" : 7,
            "componentType" : 5126,
            "count" : 448,
            "type" : "VEC3"
        },
        {
            "bufferView" : 8,
            "componentType" : 5123,
            "count" : 900,
            "type" : "SCALAR"
        },
        {
            "bufferView" : 9,
            "componentType" : 5126,
            "count" : 445,
            "max" : [
                0.045990943908691406,
                1.0660960674285889,
                0.1375807523727417
            ],
            "min" : [
                -0.9676513671875,
                -1.063378095626831,
                -0.01177242398262024
            ],
            "type" : "VEC3"
        },
        {
            "bufferView" : 10,
            "componentType" : 5126,
            "count" : 445,
            "type" : "VEC3"
        },
        {
            "bufferView" : 11,
            "componentType" : 5123,
            "count" : 900,
            "type" : "SCALAR"
        },
        {
            "bufferView" : 12,
            "componentType" : 5126,
            "count" : 352,
            "max" : [
                0.4756835103034973,
                0.07703732699155807,
                0.2846146821975708
            ],
            "min" : [
                -0.4756835103034973,
                -0.07768280804157257,
                -0.2846146821975708
            ],
            "type" : "VEC3"
        },
        {
            "bufferView" : 13,
            "componentType" : 5126,
            "count" : 352,
            "type" : "VEC3"
        },
        {
            "bufferView" : 14,
            "componentType" : 5126,
            "count" : 352,
            "type" : "VEC2"
        },
        {
            "bufferView" : 15,
            "componentType" : 5123,
            "count" : 516,
            "type" : "SCALAR"
        },
        {
            "bufferView" : 17,
            "componentType" : 5126,
            "count" : 477,
            "max" : [
                0.47620582580566406,
                0.08244641125202179,
                0.2857615649700165
            ],
            "min" : [
                -0.47620582580566406,
                0.04613548517227173,
                -0.2857615649700165
            ],
            "type" : "VEC3"
        },
        {
            "bufferView" : 18,
            "componentType" : 5126,
            "count" : 477,
            "type" : "VEC3"
        },
        {
            "bufferView" : 19,
            "componentType" : 5126,
            "count" : 477,
            "type" : "VEC2"
        },
        {
            "bufferView" : 20,
            "componentType" : 5123,
            "count" : 738,
            "type" : "SCALAR"
        },
        {
            "bufferView" : 21,
            "componentType" : 5126,
            "count" : 338,
            "max" : [
                0.14046461880207062,
                0.07703732699155807,
                0.2846146821975708
            ],
            "min" : [
                -0.1291152685880661,
                -0.07768280804157257,
                -0.2846146821975708
            ],
            "type" : "VEC3"
        },
        {
            "bufferView" : 22,
            "componentType" : 5126,
            "count" : 338,
            "type" : "VEC3"
        },
        {
            "bufferView" : 23,
            "componentType" : 5126,
            "count" : 338,
            "type" : "VEC2"
        },
        {
            "bufferView" : 24,
            "componentType" : 5123,
            "count" : 492,
            "type" : "SCALAR"
        },
        {
            "bufferView" : 25,
            "componentType" : 5126,
            "count" : 519,
            "max" : [
                0.14034633338451385,
                0.08282215893268585,
                0.28576141595840454
            ],
            "min" : [
                -0.12963758409023285,
                0.055914536118507385,
                -0.28576165437698364
            ],
            "type" : "VEC3"
        },
        {
            "bufferView" : 26,
            "componentType" : 5126,
            "count" : 519,
            "type" : "VEC3"
        },
        {
            "bufferView" : 27,
            "componentType" : 5126,
            "count" : 519,
            "type" : "VEC2"
        },
        {
            "bufferView" : 28,
            "componentType" : 5123,
            "count" : 738,
            "type" : "SCALAR"
        },
        {
            "bufferView" : 29,
            "componentType" : 5126,
            "count" : 124,
            "max" : [
                1,
                0.031190186738967896,
                0.6681012511253357
            ],
            "min" : [
                -1,
                -0.3008696436882019,
                0.003316938877105713
            ],
            "type" : "VEC3"
        },
        {
            "bufferView" : 30,
            "componentType" : 5126,
            "count" : 124,
            "type" : "VEC3"
        },
        {
            "bufferView" : 31,
            "componentType" : 5126,
            "count" : 124,
            "type" : "VEC2"
        },
        {
            "bufferView" : 32,
            "componentType" : 5123,
            "count" : 222,
            "type" : "SCALAR"
        },
        {
            "bufferView" : 33,
            "componentType" : 5126,
            "count" : 330,
            "max" : [
                0.14046461880207062,
                0.07703732699155807,
                0.2846146821975708
            ],
            "min" : [
                -0.1291152685880661,
                -0.07768280804157257,
                0.006358981132507324
            ],
            "type" : "VEC3"
        },
        {
            "bufferView" : 34,
            "componentType" : 5126,
            "count" : 330,
            "type" : "VEC3"
        },
        {
            "bufferView" : 35,
            "componentType" : 5126,
            "count" : 330,
            "type" : "VEC2"
        },
        {
            "bufferView" : 36,
            "componentType" : 5123,
            "count" : 480,
            "type" : "SCALAR"
        },
        {
            "bufferView" : 37,
            "componentType" : 5126,
            "count" : 539,
            "max" : [
                0.14034633338451385,
                0.08282215893268585,
                0.28576141595840454
            ],
            "min" : [
                -0.12963758409023285,
                0.055914536118507385,
                0.005212008953094482
            ],
            "type" : "VEC3"
        },
        {
            "bufferView" : 38,
            "componentType" : 5126,
            "count" : 539,
            "type" : "VEC3"
        },
        {
            "bufferView" : 39,
            "componentType" : 5126,
            "count" : 539,
            "type" : "VEC2"
        },
        {
            "bufferView" : 40,
            "componentType" : 5123,
            "count" : 738,
            "type" : "SCALAR"
        }
    ],
    "bufferViews" : [
        {
            "buffer" : 0,
            "byteLength" : 49104,
            "byteOffset" : 0
        },
        {
            "buffer" : 0,
            "byteLength" : 49104,
            "byteOffset" : 49104
        },
        {
            "buffer" : 0,
            "byteLength" : 12336,
            "byteOffset" : 98208
        },
        {
            "buffer" : 0,
            "byteLength" : 816,
            "byteOffset" : 110544
        },
        {
            "buffer" : 0,
            "byteLength" : 816,
            "byteOffset" : 111360
        },
        {
            "buffer" : 0,
            "byteLength" : 240,
            "byteOffset" : 112176
        },
        {
            "buffer" : 0,
            "byteLength" : 5376,
            "byteOffset" : 112416
        },
        {
            "buffer" : 0,
            "byteLength" : 5376,
            "byteOffset" : 117792
        },
        {
            "buffer" : 0,
            "byteLength" : 1800,
            "byteOffset" : 123168
        },
        {
            "buffer" : 0,
            "byteLength" : 5340,
            "byteOffset" : 124968
        },
        {
            "buffer" : 0,
            "byteLength" : 5340,
            "byteOffset" : 130308
        },
        {
            "buffer" : 0,
            "byteLength" : 1800,
            "byteOffset" : 135648
        },
        {
            "buffer" : 0,
            "byteLength" : 4224,
            "byteOffset" : 137448
        },
        {
            "buffer" : 0,
            "byteLength" : 4224,
            "byteOffset" : 141672
        },
        {
            "buffer" : 0,
            "byteLength" : 2816,
            "byteOffset" : 145896
        },
        {
            "buffer" : 0,
            "byteLength" : 1032,
            "byteOffset" : 148712
        },
        {
            "buffer" : 0,
            "byteLength" : 33650,
            "byteOffset" : 149744
        },
        {
            "buffer" : 0,
            "byteLength" : 5724,
            "byteOffset" : 183396
        },
        {
            "buffer" : 0,
            "byteLength" : 5724,
            "byteOffset" : 189120
        },
        {
            "buffer" : 0,
            "byteLength" : 3816,
            "byteOffset" : 194844
        },
        {
            "buffer" : 0,
            "byteLength" : 1476,
            "byteOffset" : 198660
        },
        {
            "buffer" : 0,
            "byteLength" : 4056,
            "byteOffset" : 200136
        },
        {
            "buffer" : 0,
            "byteLength" : 4056,
            "byteOffset" : 204192
        },
        {
            "buffer" : 0,
            "byteLength" : 2704,
            "byteOffset" : 208248
        },
        {
            "buffer" : 0,
            "byteLength" : 984,
            "byteOffset" : 210952
        },
        {
            "buffer" : 0,
            "byteLength" : 6228,
            "byteOffset" : 211936
        },
        {
            "buffer" : 0,
            "byteLength" : 6228,
            "byteOffset" : 218164
        },
        {
            "buffer" : 0,
            "byteLength" : 4152,
            "byteOffset" : 224392
        },
        {
            "buffer" : 0,
            "byteLength" : 1476,
            "byteOffset" : 228544
        },
        {
            "buffer" : 0,
            "byteLength" : 1488,
            "byteOffset" : 230020
        },
        {
            "buffer" : 0,
            "byteLength" : 1488,
            "byteOffset" : 231508
        },
        {
            "buffer" : 0,
            "byteLength" : 992,
            "byteOffset" : 232996
        },
        {
            "buffer" : 0,
            "byteLength" : 444,
            "byteOffset" : 233988
        },
        {
            "buffer" : 0,
            "byteLength" : 3960,
            "byteOffset" : 234432
        },
        {
            "buffer" : 0,
            "byteLength" : 3960,
            "byteOffset" : 238392
        },
        {
            "buffer" : 0,
            "byteLength" : 2640,
            "byteOffset" : 242352
        },
        {
            "buffer" : 0,
            "byteLength" : 960,
            "byteOffset" : 244992
        },
        {
            "buffer" : 0,
            "byteLength" : 6468,
            "byteOffset" : 245952
        },
        {
            "buffer" : 0,
            "byteLength" : 6468,
            "byteOffset" : 252420
        },
        {
            "buffer" : 0,
            "byteLength" : 4312,
            "byteOffset" : 258888
        },
        {
            "buffer" : 0,
            "byteLength" : 1476,
            "byteOffset" : 263200
        }
    ],
    "buffers" : [
        {
            "byteLength" : 264676,
            "uri" : "data:application/octet-stream;base64,"
        }
    ]
}
