{
    "asset" : {
        "generator" : "Khronos glTF Blender I/O v1.3.48",
        "version" : "2.0"
    },
    "scene" : 0,
    "scenes" : [
        {
            "name" : "Scene",
            "nodes" : [
                0,
                1,
                2,
                3,
                4,
                5
            ]
        }
    ],
    "nodes" : [
        {
            "mesh" : 0,
            "name" : "prep_table2",
            "translation" : [
                -0.8216093182563782,
                0,
                -0.07451409101486206
            ]
        },
        {
            "mesh" : 1,
            "name" : "Wall_table",
            "translation" : [
                -3.794823408126831,
                0,
                -4.20335578918457
            ]
        },
        {
            "mesh" : 2,
            "name" : "Corner_table_doorR",
            "rotation" : [
                0,
                1,
                0,
                -1.6292068494294654e-07
            ],
            "translation" : [
                -5.863580226898193,
                0.2680186629295349,
                -3.763892650604248
            ]
        },
        {
            "mesh" : 3,
            "name" : "Corner_table_doorL",
            "rotation" : [
                0,
                -0.7071068286895752,
                0,
                0.7071068286895752
            ],
            "translation" : [
                -6.592627048492432,
                0.2680186629295349,
                -3.013310194015503
            ]
        },
        {
            "mesh" : 4,
            "name" : "Corner-table",
            "translation" : [
                -6.34346342086792,
                0.006424255669116974,
                -4.266717910766602
            ]
        },
        {
            "mesh" : 5,
            "name" : "Prep_table",
            "translation" : [
                -3.369553804397583,
                0.0025680363178253174,
                4.495645523071289
            ]
        }
    ],
    "materials" : [
        {
            "doubleSided" : true,
            "emissiveFactor" : [
                0,
                0,
                0
            ],
            "name" : "metal",
            "pbrMetallicRoughness" : {
                "baseColorTexture" : {
                    "index" : 0,
                    "texCoord" : 0
                },
                "metallicFactor" : 1,
                "roughnessFactor" : 0.19999998807907104
            }
        },
        {
            "doubleSided" : true,
            "emissiveFactor" : [
                0,
                0,
                0
            ],
            "name" : "chrome",
            "pbrMetallicRoughness" : {
                "baseColorFactor" : [
                    0.5271152257919312,
                    0.5271152257919312,
                    0.5271152257919312,
                    1
                ],
                "metallicFactor" : 1,
                "roughnessFactor" : 0.1964980959892273
            }
        },
        {
            "doubleSided" : true,
            "emissiveFactor" : [
                0,
                0,
                0
            ],
            "name" : "black-plastic",
            "pbrMetallicRoughness" : {
                "baseColorFactor" : [
                    0.014475102536380291,
                    0.014475102536380291,
                    0.014475102536380291,
                    1
                ],
                "metallicFactor" : 0,
                "roughnessFactor" : 0.5
            }
        }
    ],
    "meshes" : [
        {
            "name" : "Cube.050",
            "primitives" : [
                {
                    "attributes" : {
                        "POSITION" : 0,
                        "NORMAL" : 1,
                        "TEXCOORD_0" : 2
                    },
                    "indices" : 3,
                    "material" : 0
                },
                {
                    "attributes" : {
                        "POSITION" : 4,
                        "NORMAL" : 5,
                        "TEXCOORD_0" : 6
                    },
                    "indices" : 7,
                    "material" : 1
                }
            ]
        },
        {
            "name" : "Cube.025",
            "primitives" : [
                {
                    "attributes" : {
                        "POSITION" : 8,
                        "NORMAL" : 9,
                        "TEXCOORD_0" : 10
                    },
                    "indices" : 11,
                    "material" : 0
                },
                {
                    "attributes" : {
                        "POSITION" : 12,
                        "NORMAL" : 13,
                        "TEXCOORD_0" : 14
                    },
                    "indices" : 15,
                    "material" : 1
                }
            ]
        },
        {
            "name" : "Cube.041",
            "primitives" : [
                {
                    "attributes" : {
                        "POSITION" : 16,
                        "NORMAL" : 17,
                        "TEXCOORD_0" : 18
                    },
                    "indices" : 19,
                    "material" : 0
                }
            ]
        },
        {
            "name" : "Cube.039",
            "primitives" : [
                {
                    "attributes" : {
                        "POSITION" : 20,
                        "NORMAL" : 21,
                        "TEXCOORD_0" : 22
                    },
                    "indices" : 19,
                    "material" : 0
                }
            ]
        },
        {
            "name" : "Cube.038",
            "primitives" : [
                {
                    "attributes" : {
                        "POSITION" : 23,
                        "NORMAL" : 24,
                        "TEXCOORD_0" : 25
                    },
                    "indices" : 26,
                    "material" : 0
                },
                {
                    "attributes" : {
                        "POSITION" : 27,
                        "NORMAL" : 28,
                        "TEXCOORD_0" : 29
                    },
                    "indices" : 30,
                    "material" : 2
                }
            ]
        },
        {
            "name" : "Cube.024",
            "primitives" : [
                {
                    "attributes" : {
                        "POSITION" : 31,
                        "NORMAL" : 32,
                        "TEXCOORD_0" : 33
                    },
                    "indices" : 34,
                    "material" : 0
                }
            ]
        }
    ],
    "textures" : [
        {
            "source" : 0
        }
    ],
    "images" : [
        {
            "bufferView" : 4,
            "mimeType" : "image/jpeg",
            "name" : "aluminum"
        }
    ],
    "accessors" : [
        {
            "bufferView" : 0,
            "componentType" : 5126,
            "count" : 192,
            "max" : [
                1.0368596315383911,
                1.202917456626892,
                0.525831937789917
            ],
            "min" : [
                -2.9406352043151855,
                0.31773996353149414,
                -0.5654046535491943
            ],
            "type" : "VEC3"
        },
        {
            "bufferView" : 1,
            "componentType" : 5126,
            "count" : 192,
            "type" : "VEC3"
        },
        {
            "bufferView" : 2,
            "componentType" : 5126,
            "count" : 192,
            "type" : "VEC2"
        },
        {
            "bufferView" : 3,
            "componentType" : 5123,
            "count" : 264,
            "type" : "SCALAR"
        },
        {
            "bufferView" : 5,
            "componentType" : 5126,
            "count" : 864,
            "max" : [
                0.964530885219574,
                1.1529663801193237,
                0.4586893320083618
            ],
            "min" : [
                -2.8801791667938232,
                0.0029916279017925262,
                -0.5055564045906067
            ],
            "type" : "VEC3"
        },
        {
            "bufferView" : 6,
            "componentType" : 5126,
            "count" : 864,
            "type" : "VEC3"
        },
        {
            "bufferView" : 7,
            "componentType" : 5126,
            "count" : 864,
            "type" : "VEC2"
        },
        {
            "bufferView" : 8,
            "componentType" : 5123,
            "count" : 1632,
            "type" : "SCALAR"
        },
        {
            "bufferView" : 9,
            "componentType" : 5126,
            "count" : 340,
            "max" : [
                1.0481282472610474,
                1.384595513343811,
                0.525831937789917
            ],
            "min" : [
                -1.0481282472610474,
                0.31794244050979614,
                -0.5654046535491943
            ],
            "type" : "VEC3"
        },
        {
            "bufferView" : 10,
            "componentType" : 5126,
            "count" : 340,
            "type" : "VEC3"
        },
        {
            "bufferView" : 11,
            "componentType" : 5126,
            "count" : 340,
            "type" : "VEC2"
        },
        {
            "bufferView" : 12,
            "componentType" : 5123,
            "count" : 516,
            "type" : "SCALAR"
        },
        {
            "bufferView" : 13,
            "componentType" : 5126,
            "count" : 576,
            "max" : [
                1.0016648769378662,
                1.1529663801193237,
                0.45994722843170166
            ],
            "min" : [
                -1.0074111223220825,
                0.0029916279017925262,
                -0.5042985081672668
            ],
            "type" : "VEC3"
        },
        {
            "bufferView" : 14,
            "componentType" : 5126,
            "count" : 576,
            "type" : "VEC3"
        },
        {
            "bufferView" : 15,
            "componentType" : 5126,
            "count" : 576,
            "type" : "VEC2"
        },
        {
            "bufferView" : 16,
            "componentType" : 5123,
            "count" : 1080,
            "type" : "SCALAR"
        },
        {
            "bufferView" : 17,
            "componentType" : 5126,
            "count" : 96,
            "max" : [
                0.6350172758102417,
                0.849465012550354,
                0.024965506047010422
            ],
            "min" : [
                -0.0014153122901916504,
                0.0041228532791137695,
                -0.02634916827082634
            ],
            "type" : "VEC3"
        },
        {
            "bufferView" : 18,
            "componentType" : 5126,
            "count" : 96,
            "type" : "VEC3"
        },
        {
            "bufferView" : 19,
            "componentType" : 5126,
            "count" : 96,
            "type" : "VEC2"
        },
        {
            "bufferView" : 20,
            "componentType" : 5123,
            "count" : 132,
            "type" : "SCALAR"
        },
        {
            "bufferView" : 21,
            "componentType" : 5126,
            "count" : 96,
            "max" : [
                -0.0023018368519842625,
                0.849465012550354,
                0.024965299293398857
            ],
            "min" : [
                -0.6387344002723694,
                0.0041228532791137695,
                -0.026349375024437904
            ],
            "type" : "VEC3"
        },
        {
            "bufferView" : 22,
            "componentType" : 5126,
            "count" : 96,
            "type" : "VEC3"
        },
        {
            "bufferView" : 23,
            "componentType" : 5126,
            "count" : 96,
            "type" : "VEC2"
        },
        {
            "bufferView" : 24,
            "componentType" : 5126,
            "count" : 400,
            "max" : [
                0.7506536245346069,
                1.1867104768753052,
                1.5077788829803467
            ],
            "min" : [
                -1.2620322704315186,
                1.8008286133408546e-05,
                -0.5104027986526489
            ],
            "type" : "VEC3"
        },
        {
            "bufferView" : 25,
            "componentType" : 5126,
            "count" : 400,
            "type" : "VEC3"
        },
        {
            "bufferView" : 26,
            "componentType" : 5126,
            "count" : 400,
            "type" : "VEC2"
        },
        {
            "bufferView" : 27,
            "componentType" : 5123,
            "count" : 600,
            "type" : "SCALAR"
        },
        {
            "bufferView" : 28,
            "componentType" : 5126,
            "count" : 32,
            "max" : [
                0.7006012201309204,
                1.1399091482162476,
                1.4524335861206055
            ],
            "min" : [
                -1.227946400642395,
                0.22302548587322235,
                -0.4838963449001312
            ],
            "type" : "VEC3"
        },
        {
            "bufferView" : 29,
            "componentType" : 5126,
            "count" : 32,
            "type" : "VEC3"
        },
        {
            "bufferView" : 30,
            "componentType" : 5126,
            "count" : 32,
            "type" : "VEC2"
        },
        {
            "bufferView" : 31,
            "componentType" : 5123,
            "count" : 48,
            "type" : "SCALAR"
        },
        {
            "bufferView" : 32,
            "componentType" : 5126,
            "count" : 312,
            "max" : [
                1.859110951423645,
                1.1491020917892456,
                0.6665441989898682
            ],
            "min" : [
                -1.8654015064239502,
                -0.00015766688738949597,
                -0.6590472459793091
            ],
            "type" : "VEC3"
        },
        {
            "bufferView" : 33,
            "componentType" : 5126,
            "count" : 312,
            "type" : "VEC3"
        },
        {
            "bufferView" : 34,
            "componentType" : 5126,
            "count" : 312,
            "type" : "VEC2"
        },
        {
            "bufferView" : 35,
            "componentType" : 5123,
            "count" : 486,
            "type" : "SCALAR"
        }
    ],
    "bufferViews" : [
        {
            "buffer" : 0,
            "byteLength" : 2304,
            "byteOffset" : 0
        },
        {
            "buffer" : 0,
            "byteLength" : 2304,
            "byteOffset" : 2304
        },
        {
            "buffer" : 0,
            "byteLength" : 1536,
            "byteOffset" : 4608
        },
        {
            "buffer" : 0,
            "byteLength" : 528,
            "byteOffset" : 6144
        },
        {
            "buffer" : 0,
            "byteLength" : 33650,
            "byteOffset" : 6672
        },
        {
            "buffer" : 0,
            "byteLength" : 10368,
            "byteOffset" : 40324
        },
        {
            "buffer" : 0,
            "byteLength" : 10368,
            "byteOffset" : 50692
        },
        {
            "buffer" : 0,
            "byteLength" : 6912,
            "byteOffset" : 61060
        },
        {
            "buffer" : 0,
            "byteLength" : 3264,
            "byteOffset" : 67972
        },
        {
            "buffer" : 0,
            "byteLength" : 4080,
            "byteOffset" : 71236
        },
        {
            "buffer" : 0,
            "byteLength" : 4080,
            "byteOffset" : 75316
        },
        {
            "buffer" : 0,
            "byteLength" : 2720,
            "byteOffset" : 79396
        },
        {
            "buffer" : 0,
            "byteLength" : 1032,
            "byteOffset" : 82116
        },
        {
            "buffer" : 0,
            "byteLength" : 6912,
            "byteOffset" : 83148
        },
        {
            "buffer" : 0,
            "byteLength" : 6912,
            "byteOffset" : 90060
        },
        {
            "buffer" : 0,
            "byteLength" : 4608,
            "byteOffset" : 96972
        },
        {
            "buffer" : 0,
            "byteLength" : 2160,
            "byteOffset" : 101580
        },
        {
            "buffer" : 0,
            "byteLength" : 1152,
            "byteOffset" : 103740
        },
        {
            "buffer" : 0,
            "byteLength" : 1152,
            "byteOffset" : 104892
        },
        {
            "buffer" : 0,
            "byteLength" : 768,
            "byteOffset" : 106044
        },
        {
            "buffer" : 0,
            "byteLength" : 264,
            "byteOffset" : 106812
        },
        {
            "buffer" : 0,
            "byteLength" : 1152,
            "byteOffset" : 107076
        },
        {
            "buffer" : 0,
            "byteLength" : 1152,
            "byteOffset" : 108228
        },
        {
            "buffer" : 0,
            "byteLength" : 768,
            "byteOffset" : 109380
        },
        {
            "buffer" : 0,
            "byteLength" : 4800,
            "byteOffset" : 110148
        },
        {
            "buffer" : 0,
            "byteLength" : 4800,
            "byteOffset" : 114948
        },
        {
            "buffer" : 0,
            "byteLength" : 3200,
            "byteOffset" : 119748
        },
        {
            "buffer" : 0,
            "byteLength" : 1200,
            "byteOffset" : 122948
        },
        {
            "buffer" : 0,
            "byteLength" : 384,
            "byteOffset" : 124148
        },
        {
            "buffer" : 0,
            "byteLength" : 384,
            "byteOffset" : 124532
        },
        {
            "buffer" : 0,
            "byteLength" : 256,
            "byteOffset" : 124916
        },
        {
            "buffer" : 0,
            "byteLength" : 96,
            "byteOffset" : 125172
        },
        {
            "buffer" : 0,
            "byteLength" : 3744,
            "byteOffset" : 125268
        },
        {
            "buffer" : 0,
            "byteLength" : 3744,
            "byteOffset" : 129012
        },
        {
            "buffer" : 0,
            "byteLength" : 2496,
            "byteOffset" : 132756
        },
        {
            "buffer" : 0,
            "byteLength" : 972,
            "byteOffset" : 135252
        }
    ],
    "buffers" : [
        {
            "byteLength" : 136224,
            "uri" : "data:application/octet-stream;base64,"
        }
    ]
}
